<svg version="1.2" xmlns="http://www.w3.org/2000/svg" viewBox="0 0.3591000000000122 601.4698999999999 625.6409" width="602" height="626">
	<title>Cap Logo Illustrator 5 version</title>
	<style>
		.s0 { fill: #ec1c24 } 
		.s1 { fill: #fff100 } 
		.s2 { fill: #fefefe } 
		.s3 { fill: #2e3092 } 
		.s4 { fill: #231f20 } 
	</style>
	<g id="Layer 1">
		<g id="&lt;Group&gt;">
			<circle id="Shape 1" class="s0" cx="0" cy="0" r="0"/>
		</g>
		<g id="&lt;Group&gt;">
			<path id="&lt;Path&gt;" class="s1" d="m300 572.3c-70.7 0-137.1-27.5-187.1-77.5-50-50-77.5-116.4-77.5-187.1 0-70.6 27.5-137.1 77.5-187 50-50 116.4-77.5 187.1-77.5 70.7 0 137.1 27.5 187.1 77.5 49.9 49.9 77.5 116.4 77.5 187 0 70.7-27.6 137.1-77.5 187.1-50 50-116.4 77.5-187.1 77.5z"/>
			<path id="&lt;Compound Path&gt;" class="s1" d="m300 38.2c-36.4 0-71.7 7.1-104.9 21.2-32.1 13.5-61 33-85.7 57.7-24.8 24.8-44.2 53.6-57.8 85.7-14 33.2-21.2 68.5-21.2 104.9 0 36.4 7.2 71.7 21.2 105 13.6 32.1 33 60.9 57.8 85.6 24.7 24.8 53.6 44.2 85.7 57.8 33.2 14.1 68.5 21.2 104.9 21.2 36.4 0 71.7-7.1 104.9-21.2 32.1-13.6 61-33 85.7-57.8 24.8-24.7 44.2-53.5 57.8-85.6 14-33.3 21.2-68.6 21.2-105 0-36.4-7.2-71.7-21.2-104.9-13.6-32.1-33-60.9-57.8-85.7-24.7-24.7-53.6-44.2-85.7-57.7-33.2-14.1-68.5-21.2-104.9-21.2zm0 10c143.4 0 259.6 116.2 259.6 259.5 0 143.4-116.2 259.6-259.6 259.6-143.4 0-259.6-116.2-259.6-259.6 0-143.3 116.2-259.5 259.6-259.5z"/>
		</g>
		<g id="&lt;Group&gt;">
			<g id="&lt;Group&gt;">
				<path id="&lt;Compound Path&gt;" class="s0" d="m300 48.2c-143.4 0-259.6 116.2-259.6 259.5 0 143.4 116.2 259.6 259.6 259.6 143.4 0 259.6-116.2 259.6-259.6 0-143.3-116.2-259.5-259.6-259.5zm172.6 259.5c0 95.3-77.3 172.6-172.6 172.6-95.3 0-172.6-77.3-172.6-172.6 0-95.3 77.3-172.5 172.6-172.5 95.3 0 172.6 77.2 172.6 172.5z"/>
			</g>
		</g>
		<g id="&lt;Group&gt;">
			<path id="&lt;Compound Path&gt;" class="s2" d="m70 328.3q2.1 8 9.4 12.2 6.9 3.9 15.3 2.6 4.2-0.6 7.6-2.6 4.1-2.4 4.6-6.1-1.2 1.4-2.5 1.6-5.6 0.8-6.6-5.8-0.3-1.9 1.4-3.6 1.6-1.7 3.5-2 3.2-0.4 5.8 1.6 2.7 2 3.2 5.1 1 7.2-5.6 12.3-5.6 4.3-13.3 5.5-8.5 1.2-16.9-2.3-9.4-4.2-10.6-12.2z"/>
			<path id="&lt;Compound Path&gt;" class="s2" d="m70.2 285.4l-0.1 8.4 43.2 0.7-3.7 3.3q-11.3 2.8-14.2 9.6 1.2 1 2.4 3.5 1.2 2.4 1.1 4 0 3.3-2.2 5.5-2.2 2.1-5.4 2.1-3.7-0.1-6-2.9-2-2.6-1.9-6.3 0-1.2 0.3-2.3-4 0.2-5.6 2.6-0.7 1-2.3 5.7-1.6 4.7-5.3 7.8-6.2 5.3-7 6.1l0.7-42.1zm25 14.5l-25.2-0.5-0.3 16q4.7-5.5 8.4-7.8 5-3.1 10.9-2.5 2.4-2.3 6.2-5.2z"/>
			<path id="&lt;Compound Path&gt;" class="s2" d="m73.8 262.6l-1.2 8.6 43.9 6.4-6.8 4.6-30.8-4.5q-3.4-0.5-5.7 1.6-2.4 2.1-2.6 5.6l-6.4 4.8q0.2-3.7 0.4-5.3 0.8-5.8 7.3-8.5-9-0.5-14-1.2l3-2.8q2.3-0.1 3.1-0.2 1.6-0.3 2.8-1l0.5-3.3z"/>
			<path id="&lt;Compound Path&gt;" class="s2" d="m86.9 217l-7.5 24.4 9.5 3q-0.1-0.1 4.7 1.1 0.7-2.3-2.2-6.5-3.4-5.1-3.8-6.8 2.7-3.1 8.2-3.8 4.8-0.8 9.1 0.5 7.2 2.3 10.5 7.7 3.5 5.7 1.3 12.8-5.8 19-41 11.7l3.3-3.4q8.9 2 16.7 0 9.4-2.4 11.8-10.3 1.3-4.1-0.3-8.4-1.6-4.6-5.6-5.9-1.8-0.5-3.8 0 1.6 2.1 2.9 6.3 1.4 4.7 0.7 6.9-2.3 7.4-16.1 3.1-0.4-0.1-7.6-2.6l-4.7 15.4-7.2 3.9 13.9-45.2zm37.9 29.8q2.3 0.7 3.6 2.7 1.2 2 0.6 4.2-0.7 2.2-2.8 3.4-2.1 1.1-4.2 0.5-2.2-0.7-3.5-2.8-1.2-2.1-0.6-4.3 0.7-2.1 2.8-3.2 2-1.2 4.1-0.5z"/>
			<path id="&lt;Compound Path&gt;" class="s2" d="m97.8 196.7l-3.7 7.8 39.9 19.4-7.9 2.3-28-13.5q-3.1-1.5-5.9-0.3-2.9 1.3-4.2 4.6l-7.5 2.6q1.2-3.4 1.9-4.9 2.6-5.3 9.6-5.9-8.4-3.2-13-5.4l3.8-1.7q2.1 0.6 2.9 0.7 1.6 0.2 3-0.1l1.5-3z"/>
			<path id="&lt;Compound Path&gt;" class="s2" d="m122.3 159.5l-4.8 7.1 36.6 24.8-9.9 1-17.7-12.6q-3.6-2.4-9.2-2.2-6 0.2-8.3 3.7-2.9 4.1-1.2 8.4 0.6-1.7 1.5-3 2.1-3.2 5.1-4.2 3.3-0.9 6.5 1.2 4.2 2.9 7.1 15.7l-8.9 1.3q-0.2-2.8-1-7-1.2-5.3-2.2-6-0.8-0.6-1.6 0.6-0.5 0.7-0.7 4.1-0.1 3.3-1 4.5-1.2 1.8-3.9 1.9-2.6 0.2-4.5-1.1-4.4-3-4.6-8.9-0.1-5.3 3-9.9 5.6-8.3 16-6-10.9-6.4-16.3-10.1l5.7-1.2 1 1.1q2.9 2 4.5-0.4 0.3-0.5 0.8-1.2z"/>
			<path id="&lt;Compound Path&gt;" class="s2" d="m137.6 144l-5.8 6.4 32.8 29.8-8.2 0.1-23-21q-2.5-2.3-5.6-1.9-3.1 0.4-5.3 3.2l-7.9 0.4q2.1-2.9 3.2-4.1 4-4.4 10.8-3-7.1-5.5-10.9-8.9l4.1-0.5q1.9 1.2 2.6 1.5 1.5 0.7 2.9 0.8l2.3-2.5z"/>
			<path id="&lt;Compound Path&gt;" class="s2" d="m201 154.9q-20.2-2.2-35.3 8l-10.2-4.1q5.1-2.1 6.9-3.7 5-4.1 7.3-9.2 2.8-6.4-0.9-10.9-2.2-2.7-5.8 0.3l0.6 0.8q2.8 2.8 1.5 8.7-1.3 6-4.5 8.7-2 1.6-4.8 1.7-2.8 0.1-4.5-1.9l-10.5-12.6-3.8 3.1-8-0.8 31.2-26 8 0.8-22.8 19q4.7 1.8 9.1-1.8 0.7-0.6 1.8-1.9 1.2-1.4 1.9-1.9 3.6-3.1 8.7-2.3 5 0.8 8.1 4.5 4.9 6-0.2 18 6.7-1.4 10.8-1.5 4.1-0.1 10.8 1zm-43.5-14.6q-4.2 1.9-8.4 1.5l6.3 7.5q0.7 0.9 1.1 0.6 1.7-1.4 1.9-4.6 0.2-3.2-0.9-5z"/>
			<path id="&lt;Compound Path&gt;" class="s2" d="m188.2 106l-7.3 4.5 23.5 37.7-7.9-2.2-16.5-26.4q-1.8-2.9-4.9-3.3-3.1-0.5-5.9 1.6l-7.8-1.8q2.9-2.2 4.2-3.1 5.1-3.1 11.3 0.1-5.5-7.2-8.1-11.5l4 0.6q1.6 1.6 2.2 2.1 1.2 1.1 2.6 1.6l2.8-1.8z"/>
			<path id="&lt;Compound Path&gt;" class="s2" d="m249.1 82.2l-8 2.6 13.3 41.2-4.2-2.5q-6.4-9.8-13.7-10.3-0.6 1.4-2.5 3.4-2 1.9-3.5 2.4-3.1 1-5.9-0.4-2.7-1.3-3.8-4.4-1.1-3.5 0.9-6.6 1.7-2.7 5.3-3.9 1.1-0.3 2.2-0.4-1.4-3.7-4.2-4.5-1.1-0.3-6.1-0.3-5 0-9.1-2.5-7-4.2-8.1-4.6l40.1-13zm-5.6 28.4l-7.8-24.1-15.1 5q6.7 2.6 10 5.4 4.6 3.7 5.9 9.5 3 1.5 7 4.2z"/>
			<path id="&lt;Compound Path&gt;" class="s2" d="m272.1 78.8l-8.5 1.5 7.6 43.7-6.5-5-5.3-30.7q-0.6-3.4-3.3-4.9-2.7-1.6-6.1-0.8l-6.5-4.5q3.4-1 5.1-1.3 5.8-1 10.4 4.3-2.4-8.7-3.2-13.7l3.5 2.1q0.8 2.1 1.2 2.7 0.7 1.5 1.8 2.5l3.3-0.6z"/>
			<path id="&lt;Compound Path&gt;" class="s2" d="m310.9 76.9l-7.8 0.3 1.7 45q-2-2.8-4.7-8.4-2.6-5.2-8.5-8.7-5.6-3.2-11.7-3.7l-5.8-7.2q3.1-2.3 9.2-7.2-3.2-0.5-5.4-2.5-2.1-2-2.2-5.2-0.1-3.2 2-5.3 2.1-2.2 5.3-2.3 2.2-0.1 4.1 0.9 1.8 1 1.9 3 0.1 1.7-1 2.9-1 1.1-2.7 1.2-1.5 0.1-3.1-0.6 0 0.2 0 1.2 0.1 1.6 1.6 2.5 1.5 0.8 3 0.8 0.4 0 1-0.2 3.1-1.9 9.6-6l-0.2-5.8 7.7-0.2zm-12.5 28l-0.6-18.4q-6 2.9-12.1 8.5 7.7 3.6 12.7 9.9z"/>
			<path id="&lt;Compound Path&gt;" class="s2" d="m335.5 79.8l-4.8-0.8q-6.6-0.7-7.3 6.4-0.4 3.6 0.2 11 0.6 7.3 0.2 11-0.5 4.6-4.8 8.8-4.7 4.4-9.2 3.9-1.1-0.1-2-0.9-0.9-0.9-0.7-2 0.1-1.1 3.9-1.9 5.1-1.2 5.8-8 0.3-2.8-0.7-8.2-1-5.5-0.7-8.3 0.4-3.6 2.2-6.8 1.2-2 4.4-5.5l-10.2-1-5.2-6.3 23.6 2.3z"/>
			<path id="&lt;Compound Path&gt;" class="s2" d="m380.4 81.6q-7.8-8.8-8.9-9.7-5.3-4.8-11.5-6-3.9-0.8-8.8 1.2-5.3 2.1-6.5 5.7l0.7 3.3 4.1 0.8 4.5 6.7-8-1.6-8.2 41.9-4.7-6.6 7.1-36.4-5.4-1.1-4.5-6.7 10.3 2q-2.4-3.2-1.9-5.4 1-5.2 7.4-8.5 6.1-3.1 11.4-2.1 12.7 2.5 22.1 16.9z"/>
			<path id="&lt;Compound Path&gt;" class="s2" d="m394.5 96.8l-8-2.8-14 40.9-1.9-4.5q0.8-11.6-4.8-16.5-1.3 0.9-4 1.2-2.7 0.4-4.2-0.1-3.1-1.1-4.5-3.8-1.4-2.7-0.4-5.8 1.2-3.5 4.6-4.8 3.1-1.1 6.6 0.1 1.1 0.4 2.1 1 1-3.8-0.8-6.1-0.6-1-4.7-4-4-3-5.7-7.4-3.2-7.5-3.7-8.5l39.8 13.6zm-21.4 19.4l8.1-23.9-15-5.2q3.8 6.2 4.7 10.4 1.5 5.7-0.9 11.1 1.4 3 3.1 7.6z"/>
			<path id="&lt;Compound Path&gt;" class="s2" d="m439 122.4l-17.2-10.2-0.7 1.1q5.4 3.2 6.5 10.6 1 6.9-2.2 12.4-1.7 2.9-4.8 3.9-3.2 1.1-5.9-0.5-2.1-1.2-2.8-3.6-0.7-2.5 0.5-4.5 1.4-2.4 4.8-2.9 1.5 0.3 2.7 1 1.5 0.9 2.3 2.7 1.4-3.5 0-7.3-1.5-3.7-4.9-5.5l-17.2 29.2-1.1-4.2q3.4-16-8-24.7l-1.6-9.9q14-2.2 26.6 0.8l0.9-1.5-21-12.5-2.1-7.9 43.3 25.7zm-35.6 9.6l8.8-14.8q-5.9-0.9-14-0.4 4.8 7.1 5.2 15.2z"/>
			<path id="&lt;Compound Path&gt;" class="s2" d="m493.4 165.7q-1.5-11.7-1.9-13-1.7-6.9-6.1-11.4-2.8-2.8-8-4-5.6-1.2-8.6 1.2l-1.2 3 2.9 2.9-0.1 8.2-5.7-5.8-30.3 30-0.2-8.1 26.4-26.1-3.9-3.9v-8.1l7.4 7.4q-0.1-4 1.4-5.5 3.8-3.8 11-2.9 6.8 0.9 10.6 4.7 9.1 9.2 8.8 26.4z"/>
			<path id="&lt;Compound Path&gt;" class="s2" d="m495.8 184.7l-5.3-7-35.2 26.8q2-5.5 4.1-11 2-6 1.9-10.3-0.2-5.6-3.8-11.1l3.1-9.9q14.6 4.6 25.4 11.9l1.1-0.9-15.9-20.8 1.1-8 24.6 32.4zm-30.5 5.1l14.1-10.8q-5.7-3.5-13.5-6.4 1.8 9.1-0.6 17.2z"/>
			<path id="&lt;Compound Path&gt;" class="s2" d="m515.4 223.3l-14.6-28.9-13.2 6.7q4.8 2.4 9.5 4.7 5.3 2.8 8.7 5.9l-1.6 9.9q-12.4-0.2-20.2 3.7-3.6 1.9-11.6 7.8v-5.1q9.5-7.6 14.7-10.3 3.7-1.8 8.5-3.2-8.7-7.3-21.1-6.1l3.1-9 20.5-10.4-1.9-3.7 2.5-7.8 19.2 38z"/>
			<path id="&lt;Compound Path&gt;" class="s2" d="m522.5 246.9l-1.2-4.8q-2.1-6.3-8.8-4.1-3.5 1.2-10 4.7-6.5 3.6-10 4.7-4.3 1.5-9.9-0.8-5.9-2.5-7.4-6.8-0.3-1 0.1-2.2 0.4-1.1 1.5-1.5 1.1-0.3 3.3 2.8 3.2 4.2 9.7 2.1 2.6-0.9 7.2-4 4.6-3.1 7.2-4 3.5-1.2 7.1-0.8 2.4 0.3 6.9 1.8l-3.2-9.8 3.6-7.3 7.5 22.6z"/>
			<path id="&lt;Compound Path&gt;" class="s2" d="m527.3 268.7l-1.9-8.4-43.3 9.7 4.7-6.8 30.4-6.8q3.3-0.8 4.8-3.5 1.4-2.8 0.4-6.2l4.2-6.7q1.2 3.4 1.5 5 1.3 5.8-3.7 10.6 8.5-2.7 13.5-3.8l-1.9 3.6q-2.1 0.9-2.7 1.3-1.4 0.8-2.4 1.9l0.8 3.3z"/>
			<path id="&lt;Compound Path&gt;" class="s2" d="m531.4 314.4l-0.6-8.5-43.1 3.1 5.2-6.2 23-1.6q1.6-0.1 2.9-1.6 1.4-1.6 1.2-3.2-0.1-2.5-3.1-2.3-0.9 0.1-3.3 0.7l-1.5-3.2q3-0.8 5.1-3.2 2.1-2.5 1.9-5.6-0.2-2.7-2.3-4.5-2-1.8-4.7-1.7-3.1 0.3-4.1 3.3 0.9-0.4 1.9-0.5 2.1-0.1 3.8 1.4 1.6 1.5 1.8 3.7 0.2 2.6-2.2 4.6-2.2 1.7-5 1.9-2.4 0.1-4.2-2-1.7-2.1-1.8-4.8-0.4-5.4 2.7-9.1 3.2-3.7 8.6-4.1 4.6-0.3 8.4 1.9 4.3 2.5 4.6 6.9 0.4 5.2-3.6 9.1 1.6 0.7 3 2.1 1.3 1.4 1.4 2.9 0.3 3.7-3.8 6.8l6.7-0.5-2.2-31.8 5.3-6.4 3.3 46z"/>
			<path id="&lt;Compound Path&gt;" class="s2" d="m526.3 355.3l1-8.2-43.3-5.1q3.3-2.5 9.8-5.6 5.3-2.5 7.4-4.8 3.2-3.5 4.4-10.6l8.5-5.2q5.6 7 9 13.1 1.8-1.7 3.2-6.1 1.3-4.4 3.8-6.8 2.5-1.9 7.3-5.6l-4.8 40.1zm-31.6-24.3q-2-0.2-3.4-1.8-1.4-1.6-1.1-3.7 0.2-2.1 1.9-3.5 1.8-1.5 3.9-1.2 2 0.2 3.4 1.8 1.3 1.6 1.1 3.7-0.3 2.1-2 3.5-1.7 1.5-3.8 1.2zm5.5 7.1l27.8 3.3 1.3-11.4q-2.6 2.7-9.7 7.2-2.7-3.5-8.4-10.5-3.9 7.5-11 11.4z"/>
		</g>
		<g id="&lt;Group&gt;">
			<path id="&lt;Path&gt;" class="s0" d="m123.9 288.8h347.3v-4.6h-347.3z"/>
		</g>
		<g id="&lt;Group&gt;">
			<path id="&lt;Compound Path&gt;" class="s3" d="m300 135.2c-95.3 0-172.6 77.2-172.6 172.5 0 95.3 77.3 172.6 172.6 172.6 95.3 0 172.6-77.3 172.6-172.6 0-95.3-77.3-172.5-172.6-172.5zm0 10c43.4 0 84.2 16.9 114.9 47.6 30.8 30.7 47.7 71.5 47.7 114.9 0 43.5-16.9 84.3-47.7 115-30.7 30.7-71.5 47.6-114.9 47.6-43.4 0-84.3-16.9-115-47.6-30.7-30.7-47.6-71.5-47.6-115 0-43.4 16.9-84.2 47.6-114.9 30.7-30.7 71.6-47.6 115-47.6z"/>
		</g>
		<g id="&lt;Group&gt;">
			<g id="&lt;Group&gt;">
				<path id="&lt;Compound Path&gt;" class="s0" d="m155.4 267.3l-0.5 2.2 18.1 4.2q-0.9 0.5-2.7 1.1-0.9-0.2-3.3-0.8-2-0.6-3.2-0.8-4-0.9-5.8-0.2l5 5.3-1.7 1.9q-0.5-0.6-1.1-1.2-0.7-0.7-1.3-0.9-1.4-0.3-1.5 0.2-0.1 0.2 0.1 0.9 0.3 0.6 0.2 0.9-0.1 0.4-0.8 0.6-0.6 0.2-1.2 0.1-2-0.5-3.4-2.6-1.2-1.9-0.9-3.4 0.3-1.3 1.9-2.2 1.4-0.9 3.5-1.2-3.4-0.5-7.7-1.5l1.4-0.8h0.3q1.6 0.3 1.8-0.8zm-0.1 6.5q-1.1 0.5-1.2 1.3-0.4 1.5 1 2.6 0.3-0.6 1.1-0.8 0.9-0.3 1.9-0.1z"/>
				<path id="&lt;Compound Path&gt;" class="s0" d="m159.8 254l-2.3 7.1 4.1 1.4q0-0.1 2 0.6 0.3-0.7-1.1-2.2-1.6-1.7-1.8-2.2 1-0.8 3.3-0.8 2 0 3.9 0.7 3.1 1 4.7 2.8 1.7 1.9 1 4-1.8 5.5-17 1.5l1.3-0.8q3.8 1 7.1 0.8 3.9-0.3 4.6-2.6 0.4-1.2-0.4-2.6-0.8-1.5-2.6-2-0.8-0.3-1.6-0.2 0.8 0.7 1.5 2 0.7 1.5 0.5 2.2-0.7 2.1-6.8 0.1-0.1 0-3.2-1.2l-1.5 4.5-3 0.9 4.4-13.2zm17.2 11q0.9 0.4 1.6 1.1 0.6 0.6 0.4 1.3-0.3 0.6-1.1 0.9-0.8 0.2-1.8-0.1-0.9-0.3-1.5-1-0.7-0.7-0.4-1.4 0.2-0.6 1-0.8 0.8-0.3 1.8 0z"/>
				<path id="&lt;Compound Path&gt;" class="s0" d="m165.9 240.4q-0.7 2.4 1.3 5 1.8 2.4 5.2 4 1.7 0.8 3.3 1.1 2 0.3 2.9-0.4-0.7 0-1.3-0.2-2.2-1.1-1.4-2.8 0.3-0.5 1.2-0.6 0.9 0 1.7 0.4 1.2 0.6 1.9 1.6 0.6 1.1 0.2 1.9-0.9 1.9-4.3 1.7-2.9-0.3-6-1.7-3.4-1.6-5.9-4.3-2.8-3.1-1.8-5.3z"/>
				<path id="&lt;Compound Path&gt;" class="s0" d="m173.1 227.5l-7.2 12.8-3.1 0.2 7.2-12.7zm6.8 5.9q2.4 1.4 3.3 3.6 1 2.2 0.1 3.8-2.6 4.5-15.9-0.2l1.3-0.7q4.5 1.1 6.7 1.1 3.5 0.1 4.7-2.1 0.5-0.9-0.1-2.5-0.6-1.5-2-2.3-1-0.5-2.2-0.7-1.4-0.1-1.7 0.6l-0.2 0.4q0.9 0.1 1.7 0.6 2.6 1.4 1.5 3.2-0.5 0.9-1.7 0.9-1.3 0-2.7-0.8-1.6-0.8-2.1-2.3-0.6-1.3 0-2.3 1.1-1.8 3.9-1.8 2.6 0 5.4 1.5z"/>
				<path id="&lt;Compound Path&gt;" class="s0" d="m177 221.9l-1.4 2.1 16.2 10.8-3.1-0.1-11.4-7.5q-1.2-0.9-2.4-0.8-1.1 0.1-1.6 1h-2.9q0.4-0.9 0.7-1.3 0.9-1.5 3.7-0.9-3.4-2-5.3-3.2l1.5-0.1q0.9 0.4 1.2 0.5 0.7 0.3 1.2 0.3l0.6-0.8z"/>
				<path id="&lt;Compound Path&gt;" class="s0" d="m184.4 212.2l-1.5 2 15.1 11.5-1.9-0.2q-4.5-2.3-6.6-1.5 0.2 0.6 0.2 1.5 0 0.9-0.3 1.2-0.6 0.8-1.7 0.7-1.1 0-2.3-0.9-1.3-1-1.6-2.2-0.2-1.2 0.4-2 0.2-0.3 0.5-0.5-1.4-1-2.4-0.8-0.4 0-1.8 0.7-1.4 0.7-3.2 0.5-3.1-0.4-3.5-0.4l7.5-9.8zm6.3 10l-8.8-6.7-2.8 3.7q2.6-0.1 4.3 0.3 2.2 0.6 4.2 2.3 1.3 0.1 3.1 0.4z"/>
				<path id="&lt;Compound Path&gt;" class="s0" d="m188.8 207.2l-1.7 1.9 14.7 12.7-3-0.5-10.4-8.9q-1.1-1-2.2-1.1-1.2 0-1.7 0.8l-3-0.3q0.6-0.9 0.9-1.3 1.1-1.3 3.8-0.4-3.1-2.4-4.8-3.8h1.5q0.8 0.6 1.1 0.7 0.6 0.4 1.1 0.5l0.7-0.7z"/>
				<path id="&lt;Compound Path&gt;" class="s0" d="m196.5 199.1l-1.6 1.6 13.3 13q-1.2 0.1-3.5-1-2.6-1.1-3.7-1.2-2.2-0.3-4 1.2l-3.9-1.3q-0.2-5.3 1-9l-0.4-0.4-5.1 5.2-3-0.5 7.9-8.1zm5.9 11.3l-5.8-5.7q-0.6 2.1-0.5 5 3-0.6 6.3 0.7zm0.5 2.9q0.7 0.6 0.9 1.4 0.2 0.7-0.2 1.2-0.4 0.4-1.2 0.2-0.9-0.1-1.5-0.7-0.6-0.6-0.8-1.4-0.2-0.7 0.2-1.1 0.4-0.5 1.2-0.3 0.8 0.1 1.4 0.7z"/>
				<path id="&lt;Compound Path&gt;" class="s0" d="m212.5 185.8l-1.8 1.4 11.5 14.6q-1.1-0.2-2.9-0.8-0.5-0.7-2-2.7-1.2-1.7-2-2.7-2.5-3.1-4.4-3.7l0.6 7.2-2.5 0.4q-0.1-0.8-0.1-1.5-0.1-1.1-0.5-1.6-0.9-1.1-1.3-0.8-0.2 0.2-0.4 0.8-0.2 0.6-0.5 0.8-0.3 0.3-0.9 0-0.7-0.2-1.1-0.7-1.3-1.6-1-4.1 0.2-2.3 1.4-3.2 1.1-0.9 2.9-0.6 1.6 0.2 3.4 1.3-2.3-2.6-5-6l1.6 0.2 0.3 0.2q1 1.2 1.8 0.6zm-4.1 5q-1.2-0.3-1.8 0.2-1.2 0.9-0.8 2.6 0.6-0.2 1.4 0.1 0.8 0.4 1.5 1.1z"/>
				<path id="&lt;Compound Path&gt;" class="s0" d="m223.2 203.9q-4-2.6-4.8-2.9-1.1-0.5-2.1 0.2-0.2 0.2-1.1 0.9-0.9 0.8-1.7 1.3-1.3 1-3.3 0.4-1.9-0.7-3.4-2.7-1-1.4-1.9-3.1l1.9 0.7q0.1 0.5 0.4 0.8 1.6 2.3 4.1 1.1 3.8-2 4.8-2 3.3 0 7.1 5.3z"/>
				<path id="&lt;Compound Path&gt;" class="s0" d="m224.1 178.3l-11.6 7.4-2.8-1.1 11.5-7.5zm3.2 6.9q1.8 2.8 1.9 5.4 0.2 2.9-1.6 4-2.7 1.8-7.1-1.5-2-1.4-7.1-6.5l1.5-0.2q7.1 7.4 10.8 5 1-0.6 1.1-2.2 0.1-1.7-0.9-3.1-0.9-1.5-1.5-1.6 0.3 3.2-1.6 4.4-1 0.7-2.3 0.3-1.4-0.5-2.4-2-0.8-1.2-0.7-2.3 0-1 0.8-1.6 0.6-0.3 1.4 0 0.9 0.3 1.4 1.2 0.4 0.5 0.5 1.2 0.3-0.7 0.2-1.9-0.1-1.2-0.4-2.1l0.1-0.2q0.8-0.5 3 1 2.1 1.5 2.9 2.7z"/>
				<path id="&lt;Compound Path&gt;" class="s0" d="m235.2 200.2q0.2 0.3 1 2-3.7-3.1-6.4-3.5 0.3 2.3-1.1 3.1-0.7 0.4-1.7 0.1-1-0.3-1.7-1.4-0.7-1.2-0.5-2.4 0.2-1.2 1-1.7 0.6-0.3 1.8-0.1-0.4-0.8-0.9-1.4l-0.5-1.2q1 0.3 1.7 1 0.4 0.4 1.2 1.8 3.3 0.8 4.6 2.2 0.8 0.4 1.5 1.5zm-7.3-2.1q-0.2-0.2-0.6 0.1-1.1 0.6-0.7 1.4 0.2 0.4 0.6 0.2 0.8-0.5 0.7-1.7z"/>
				<path id="&lt;Compound Path&gt;" class="s0" d="m234.3 172.8l-2.1 1.1 8.8 16.3q-1.2-0.2-3.1-1.9-2.1-1.9-3.1-2.3-2-1-4.2-0.1l-3.3-2.3q1.4-5.2 3.7-8.4l-0.2-0.5-6.5 3.5-2.7-1.4 10-5.4zm2.2 12.5l-3.8-7.1q-1.3 1.8-2.1 4.6 3.1 0.4 5.9 2.5zm-0.4 3q0.4 0.8 0.4 1.6 0 0.8-0.6 1-0.5 0.3-1.2 0-0.8-0.4-1.2-1.2-0.4-0.8-0.3-1.5 0-0.8 0.5-1.1 0.6-0.3 1.3 0.1 0.7 0.3 1.1 1.1z"/>
				<path id="&lt;Compound Path&gt;" class="s0" d="m251.7 165.6l-2.2 0.9 7 18.2-1.6-1.4q-0.3-1-0.5-1.3-1-2.6-3.3-5.3-2.6-3-4.2-2.5 1 0.9 1.4 1.9 1 2.5-0.8 3.2-2.3 0.9-3.6-2.5-0.7-1.8-0.3-3.3 0.3-1.6 1.6-2.1 2.2-0.8 5.5 2.9l-2.8-7.2-7.5 2.9-2.5-1.8 11.3-4.3z"/>
				<path id="&lt;Compound Path&gt;" class="s0" d="m258.1 163.7l-2.4 0.8 5.8 18.5-2.3-2-4.1-13q-0.5-1.5-1.4-2.1-1-0.6-1.9-0.2l-2.3-1.8q0.9-0.5 1.4-0.7 1.6-0.5 3.4 1.7-1.4-3.7-2-5.8l1.2 0.8q0.4 0.9 0.6 1.2 0.3 0.6 0.7 1l0.9-0.3z"/>
				<path id="&lt;Compound Path&gt;" class="s0" d="m265.5 161.5q-4.6 3.2-2.3 11.7 0.4 1.5 1.3 2.9 1 1.6 1.9 1.6-0.6-0.5-0.9-1.5-0.2-0.9 0.2-1.7 0.3-0.8 0.9-1 0.7-0.2 1.4 0.5 0.7 0.8 0.9 1.7 0.4 1.4-0.1 2.5-0.4 1.1-1.3 1.3-2 0.6-4-2.2-1.6-2.3-2.5-5.6-1.1-4.3-0.1-8.8l-3.1 0.9-2.3-2 7.9-2.1z"/>
				<path id="&lt;Compound Path&gt;" class="s0" d="m277.8 159.4l-2.4 0.4 3.6 18.7-1.3-1.4q-1.8-4.7-4-5.5-0.1 0.5-0.7 1.2-0.7 0.7-1.1 0.8-0.9 0.1-1.8-0.7-0.8-0.8-1-2.2-0.3-1.6 0.3-2.7 0.5-1 1.6-1.2 0.4-0.1 0.7-0.1-0.4-1.6-1.2-2.2-0.4-0.2-1.9-0.6-1.5-0.4-2.6-1.8-2.1-2.4-2.4-2.6l12.1-2.4zm-2 11.7l-2-10.9-4.6 0.9q2 1.7 2.9 3.1 1.3 2 1.7 4.5 0.8 0.9 2 2.4z"/>
				<path id="&lt;Compound Path&gt;" class="s0" d="m297.5 154.4q-3-2.9-3.4-3.2-1.9-1.4-3.8-1.3-1.1 0.1-2.3 1.5-1.3 1.5-1.3 3.1l0.5 1.3 1.2-0.1 1.9 2.4-2.4 0.2 1.6 18.6-2-2.3-1.3-16.2-1.6 0.2-1.9-2.4 3.1-0.3q-1-1.1-1.1-2-0.2-2.4 1.3-4.5 1.4-1.9 3-2.1 3.8-0.3 7.7 4.8z"/>
				<path id="&lt;Compound Path&gt;" class="s0" d="m302 157.7l-2.3 0.1 0.5 18.9q-0.9-1.1-1.9-3.5-0.9-2.2-1.7-3-1.3-1.4-3.5-1.4l-1.9-3.4q1.4-2.4 3.3-4.7-1.6-0.9-3.2-1.8-0.5-0.4-2.7-3.4l11.6-0.3zm-3.6 12.4l-0.4-12.3-3.4 0.1q0.9 0.9 2.6 3.7-0.9 1.4-2.7 4.3 2.3 1.2 3.9 4.2z"/>
				<path id="&lt;Compound Path&gt;" class="s0" d="m315.2 155.1q-2.7-3.2-3-3.5-1.7-1.7-3.6-1.7-1.2-0.1-2.5 1.1-1.5 1.4-1.6 3l0.3 1.4h1.2l1.6 2.6-2.4-0.1-0.5 18.7-1.7-2.5 0.5-16.3h-1.6l-1.6-2.6 3.1 0.1q-0.8-1.2-0.8-2.2 0.1-2.3 1.8-4.2 1.6-1.8 3.2-1.8 3.8 0.1 7.1 5.7z"/>
				<path id="&lt;Compound Path&gt;" class="s0" d="m319.6 159l-2.4-0.3-1.8 19.5-0.7-2q0.1-1 0.1-1.3 0.3-2.8-0.6-6.2-1-3.9-2.7-4.2 0.5 1.3 0.4 2.3-0.2 2.8-2.1 2.6-2.5-0.2-2.2-3.9 0.2-1.9 1.2-3.1 1.1-1.2 2.4-1.1 2.3 0.2 3.6 5l0.7-7.7-8-0.7-1.4-2.7 12 1.1z"/>
				<path id="&lt;Compound Path&gt;" class="s0" d="m334.2 161.6q-2.4-0.1-4.5 2.4-1.9 2.4-2.7 6.1-0.4 1.8-0.3 3.5 0.2 2 1.1 2.6-0.2-0.6-0.1-1.2 0.5-2.4 2.4-2 0.6 0.1 0.8 0.9 0.3 0.9 0.1 1.8-0.3 1.3-1.2 2.2-0.9 0.9-1.8 0.7-2.1-0.4-2.6-3.8-0.4-2.9 0.3-6.2 0.7-3.7 2.8-6.8 2.3-3.4 4.6-2.9z"/>
				<path id="&lt;Compound Path&gt;" class="s0" d="m348.5 165.6l-14.2-4-0.9-2.9 14.1 4zm-4.2 7.9q-0.8 2.7-2.7 4.2-1.9 1.4-3.7 0.9-4.9-1.4-3.5-15.5l1 1.1q-0.1 4.6 0.4 6.7 0.8 3.5 3.2 4.1 1.1 0.3 2.4-0.6 1.3-0.9 1.8-2.5 0.3-1.1 0.1-2.3-0.2-1.4-0.9-1.6h-0.4q0.1 0.9-0.2 1.8-0.8 2.8-2.8 2.2-1-0.3-1.3-1.5-0.3-1.2 0.1-2.8 0.5-1.7 1.8-2.6 1.1-0.8 2.3-0.5 2 0.6 2.6 3.3 0.6 2.6-0.2 5.6z"/>
				<path id="&lt;Compound Path&gt;" class="s0" d="m354.8 168.1l-2.4-0.9-6.7 18.3-0.6-3 4.7-12.9q0.5-1.4 0.2-2.4-0.4-1.1-1.4-1.4l-0.7-2.8q1.1 0.2 1.5 0.3 1.6 0.6 1.7 3.5 1.2-3.8 1.9-5.9l0.5 1.4q-0.2 0.9-0.3 1.3-0.1 0.7 0 1.2l0.9 0.4z"/>
				<path id="&lt;Compound Path&gt;" class="s0" d="m366 173l-2.3-1-7.6 17.4-0.2-1.9q1.1-4.9-0.2-6.8-0.5 0.4-1.3 0.6-0.9 0.2-1.3 0-0.9-0.4-1.1-1.5-0.3-1.1 0.3-2.4 0.7-1.5 1.8-2.1 1.1-0.5 2.1-0.1 0.3 0.2 0.5 0.4 0.7-1.6 0.3-2.5-0.1-0.4-1.1-1.6-1-1.2-1.2-3-0.4-3.1-0.5-3.5l11.3 5zm-8.2 8.5l4.4-10.2-4.2-1.9q0.6 2.5 0.6 4.3 0 2.3-1.2 4.7 0.2 1.2 0.4 3.1z"/>
				<path id="&lt;Compound Path&gt;" class="s0" d="m371.9 176.1l-2.2-1.1-9 17.3-0.2-3.2 6.3-12.1q0.7-1.3 0.5-2.4-0.2-1.1-1.2-1.5l-0.3-2.9q1 0.3 1.4 0.5 1.5 0.8 1.3 3.6 1.6-3.6 2.6-5.6l0.3 1.5q-0.4 0.9-0.4 1.2-0.2 0.7-0.2 1.3l0.8 0.4z"/>
				<path id="&lt;Compound Path&gt;" class="s0" d="m378.7 179.9q-5.4-1.1-9.9 6.6-0.7 1.2-1.1 2.9-0.4 1.9 0.2 2.5 0-0.8 0.5-1.7 0.5-0.8 1.3-1.1 0.8-0.3 1.3 0 0.6 0.3 0.6 1.3 0 1-0.5 1.9-0.7 1.2-1.8 1.7-1.1 0.4-1.9 0-1.8-1.1-1.2-4.5 0.4-2.7 2.2-5.7 2.2-3.8 6.1-6.2l-2.8-1.6-0.2-3.1 7.1 4.1z"/>
				<path id="&lt;Compound Path&gt;" class="s0" d="m391 188.3l-4.9-3.3-0.3 0.5q1.5 1 1.2 3.9-0.3 2.7-1.9 5-0.8 1.2-1.9 1.8-1.2 0.5-1.9 0-0.6-0.4-0.6-1.3-0.1-1 0.5-1.8 0.7-1 1.9-1.4 0.5 0.1 0.8 0.3 0.4 0.3 0.5 1 0.8-1.5 0.7-2.9-0.2-1.4-1.1-2l-8.5 12.3 0.1-1.6q2.6-6.5-0.5-9.4l0.4-3.9q4.9-1.4 8.8-0.8l0.5-0.6-5.9-4.1v-3l12.1 8.3zm-12.8 5.3l4.3-6.2q-1.8-0.1-4.6 0.4 0.9 2.6 0.3 5.8z"/>
				<path id="&lt;Compound Path&gt;" class="s0" d="m406.4 201.9l-1.9-1.8-12.9 14.1 0.7-3.3 5.7-6.2q0.4-0.3 0.4-1.2 0-0.8-0.3-1-0.5-0.5-1.9 0.2-1.5 0.6-2.8 1.2-1.7 0.6-2.5-0.2-0.4-0.3-0.3-0.8-0.3-0.7 1.2-4.2l2.2-0.5q-0.5 0.6-0.9 1.4-0.6 1-0.3 1.3 0.3 0.3 3.7-1.2 1.6-1.9 1.3-2.9 0-0.3-1-1.6-0.8-1-0.3-2.5-0.1-0.3 0.3-3l10 9.2zm-3.1-2.9l-3.3-3q-0.2 2-1.6 3.3 1.5 0 1.7 0.2 0.6 0.5-0.1 3.1z"/>
				<path id="&lt;Compound Path&gt;" class="s0" d="m385.3 221.4q0.8-2.2 0.8-5.2-0.1-2.5-0.2-5l5.5-0.2 2.1-1.4-1.8 3.8-3.7 0.1q0.1 2.9-0.2 3.9-0.5 1.9-2.5 4z"/>
				<path id="&lt;Compound Path&gt;" class="s0" d="m417.6 209.3q0.4-4.1 0.3-4.6 0-2.4-1.3-3.7-0.8-0.9-2.6-1-2 0-3.3 1l-0.7 1.2 0.9 0.9-0.7 2.9-1.6-1.7-13.5 13 0.5-3 11.8-11.2-1.2-1.2 0.7-2.9 2.1 2.2q0.3-1.5 1-2.1 1.7-1.7 4.2-1.8 2.5-0.2 3.6 1 2.6 2.7 1.1 9z"/>
				<path id="&lt;Compound Path&gt;" class="s0" d="m417.7 214.8l-1.8-2.1q-0.6 1.2-1.4 1.8-1.5 1.3-4.1 1.6-0.6 0-4.5 0-2.3 0-3.1 0.7-0.4 0.4-0.1 0.8 1.2 1.4 3.7 1.3 0.3-1 0.8-1.5 0.7-0.5 1.5-0.6 0.9-0.1 1.3 0.3 0.4 0.5 0.2 1.4-0.3 1-1.1 1.6-1.8 1.6-4.4 1.1-2.1-0.3-3.3-1.7-1.9-2.2 0.8-4.5 1.3-1.1 2.5-1.2 1.2-0.1 2.4-0.1-1-2.1 1.2-4 1.7-1.4 3.6-1.7l-1.7-1.9 0.9-3 5.5 6.4-0.1 1q0.5 0 0.9-0.4l0.2-0.2q0.2-0.1 0.4-0.4-0.1-0.9-0.3-1.1-0.4-0.5-1.3-1.4-0.9-0.9-1.4-1.4-0.7-0.9-0.6-2.4 0.3-1.8 1.6-2.9 1.4-1.2 2.5-1.3l0.3 1.1q-1 0.2-1.4 0.6-1.4 1.2-0.1 2.7 0.4 0.4 1.1 1.2 0.8 0.7 1.1 1.1 0.9 1 0.5 2.6-0.4 1.6-1.9 3l0.5 0.6q-0.4 1.6-0.9 2.9zm-7.4-1.1l1.3-3.2q-1.1-0.2-2.1 0.7-1.3 1.1-0.6 1.9 0.8 0.9 1.4 0.6zm3.5-1.1q1.2-1 0.5-1.8-0.7-0.8-1.2-0.4-0.7 2-1 3 0.7 0.1 1.7-0.8z"/>
				<path id="&lt;Compound Path&gt;" class="s0" d="m430 232.7l-3.1-4.9-0.5 0.3q1 1.5-0.4 4.1-1.3 2.4-3.7 3.9-1.2 0.8-2.5 0.8-1.2 0.1-1.8-0.7-0.3-0.6 0-1.4 0.3-0.9 1.2-1.5 1-0.6 2.3-0.5 0.4 0.3 0.6 0.6 0.3 0.4 0.1 1.1 1.3-1 1.7-2.4 0.4-1.4-0.3-2.3l-12.4 8.1 0.6-1.5q4.9-4.9 3.2-8.8l1.9-3.5q5 0.6 8.4 2.7l0.7-0.4-3.9-6 1.2-2.8 8 12.3zm-13.9 0l6.4-4.1q-1.7-0.8-4.5-1.4-0.1 2.8-1.9 5.5z"/>
				<path id="&lt;Compound Path&gt;" class="s0" d="m434 239.8q-4.2-3.7-11.9 0.5-1.3 0.7-2.5 1.9-1.3 1.4-1.2 2.3 0.5-0.7 1.3-1.2 0.9-0.5 1.7-0.3 0.9 0.1 1.2 0.7 0.3 0.6-0.2 1.4-0.5 0.9-1.4 1.4-1.3 0.6-2.4 0.5-1.2-0.2-1.7-1-1-1.9 1.3-4.5 1.8-2.1 4.8-3.7 3.9-2.1 8.5-2.1l-1.5-2.9 1.4-2.6 3.9 7.1z"/>
				<path id="&lt;Compound Path&gt;" class="s0" d="m423 251.2q-0.7 0.3-1.5 0.3-0.8-0.1-1.1-0.6-0.2-0.6 0.2-1.3 0.4-0.7 1.3-1.1 0.7-0.3 1.5-0.2 0.8 0.1 1 0.6 0.2 0.5-0.1 1.2-0.4 0.7-1.3 1.1zm15.6-0.9l-0.9-2.1-16.9 7.8q0.4-1.2 2.2-3 2-2 2.5-3 1.1-1.9 0.3-4.2l2.5-3.1q5.1 1.7 8.2 4.2l0.5-0.2-3.1-6.7 1.6-2.6 4.7 10.3zm-12.6 1.4l7.3-3.4q-1.7-1.3-4.4-2.2-0.6 3-2.9 5.6z"/>
				<path id="&lt;Compound Path&gt;" class="s0" d="m441.6 257.7q-3.6-4.2-11.8-1.1-1.4 0.6-2.7 1.6-1.5 1.3-1.5 2.1 0.5-0.6 1.5-1 0.9-0.3 1.7-0.1 0.8 0.3 1 0.9 0.3 0.6-0.3 1.4-0.7 0.8-1.6 1.1-1.3 0.5-2.5 0.2-1.1-0.3-1.5-1.2-0.7-2 1.9-4.2 2.1-1.9 5.3-3.1 4.1-1.6 8.6-1l-1.1-3 1.7-2.5 2.9 7.6z"/>
				<path id="&lt;Compound Path&gt;" class="s0" d="m424.4 276q4.9-5.8 4.1-11.1l3.6-2.7q-0.2 1.6 0 2.3 0.6 1.8 2 2.9 1.9 1.4 4.3 0.6 1.5-0.4 1.1-1.7l-0.4 0.1q-1.7 0.6-3.6-0.3-2-0.8-2.4-2-0.2-0.7 0.3-1.6 0.6-0.8 1.7-1.2l6.9-2.1-0.4-1.3 1.9-2.4 3.5 11.4-1.9 2.3-2.6-8.3q-1.7 1.3-1.2 2.9 0.1 0.2 0.4 0.6 0.2 0.5 0.3 0.7 0.4 1.4-0.9 2.8-1.3 1.5-3.3 2.1-3.3 1-6.8-1.5-0.8 2.1-1.6 3.3-0.8 1.2-2.6 3.2zm14.4-11.8q0.1-1.4 1.1-2.7l-4.1 1.3q-0.5 0.2-0.5 0.3 0.2 0.6 1.4 0.9 1.1 0.4 2.1 0.2z"/>
				<path id="&lt;Compound Path&gt;" class="s0" d="m447.7 281.1l-0.5-2.4-19.1 4.2 1.6-1.3q1-0.2 1.4-0.3 2.7-0.6 5.7-2.4 3.4-2.2 3.2-3.9-1.1 0.9-2.1 1.1-2.7 0.6-3.1-1.2-0.6-2.5 3-3.3 1.9-0.4 3.4 0.2 1.4 0.7 1.7 1.9 0.5 2.3-3.7 5l7.6-1.6-1.7-7.9 2.1-2.2 2.6 11.8z"/>
			</g>
		</g>
		<g id="&lt;Group&gt;">
			<g id="&lt;Group&gt;">
				<path id="&lt;Path&gt;" class="s4" d="m412.6 301.2c0 0-48.1-27-113.8 9.8-0.3 5.1 0 92.8 0 92.8 0 0 59.8-30.2 113.8-8 0-26 0-94.6 0-94.6z"/>
				<path id="&lt;Path&gt;" class="s4" d="m185.6 301.2c0 0 48.2-27 113.9 9.8 0.3 5.1 0 92.8 0 92.8 0 0-59.9-30.2-113.9-8 0-26 0-94.6 0-94.6z"/>
			</g>
			<g id="&lt;Group&gt;">
				<path id="&lt;Path&gt;" class="s2" d="m397.2 306.4c0 0-39.5-21.5-93.4 7.9-0.3 4.1 0 74 0 74 0 0 49.1-24.1 93.4-6.4 0-20.7 0-75.5 0-75.5z"/>
				<path id="&lt;Path&gt;" class="s2" d="m201.8 308.5c0 0 39.2-20.8 92.7 7.6 0.3 3.9 0 71.3 0 71.3 0 0-48.7-23.2-92.7-6.1 0-20 0-72.8 0-72.8z"/>
			</g>
			<g id="&lt;Group&gt;">
				<g id="&lt;Group&gt;">
					<path id="&lt;Compound Path&gt;" class="s4" d="m239 334.9h-15.6v0.9q-0.1 1.4 0.5 3.9 0.7 2.9 1.6 2.9 0.1 0 1.1-1.3 1.2-1.7 2.1-2.6 1.6-1.3 3-1.3 2 0 3.6 1.8 1.5 1.8 1.5 4.6 0 2.5-1.9 4.6 1.5 3.4 1.5 5.3 0 2.4-1.4 3.7-1.3 1.2-3.1 1.2-3.4 0-5.5-5.4-1.2 5.4-5.4 5.4-3.8 0-6.2-3.9-1.8-3-2.9-8.9-0.4-1.8-1.4-9.6l2.4 1.7q0.7 6.1 1.4 8.4 1.1 4.1 3.8 6.6 1.2 1.1 2 1.1 1.4 0 2.7-1.4 1.6-1.4 1.6-3.3 0-0.7-0.3-1.3-2.3 1.7-3.9 1.7-2.3 0-3.6-2-1.2-1.9-1.2-5.1 0-4.3 2.3-7.7h-7.3l-2.8-4h28.6zm-16.3 8.3q-0.5-1.1-2.2-5.3-0.8 0.3-1.7 2.3-0.8 1.9-0.8 3.1 0 2 1.3 2 1.5 0 3.4-2.1zm11.3 9.1q0-0.9-0.8-2.1-0.9 0.9-2 0.9-2.3 0-2.3-2.9 0-1.6 0.8-2.9 0.8-1.2 1.9-1.2 0.8 0 1.5 0.9 0.8-1.1 0.8-1.9 0-0.8-0.9-1.4-0.8-0.6-1.5-0.6-0.9 0-2.9 2.2-1.9 2.1-1.9 3.3 0 2.9 1.5 5.5 1.6 2.6 3.7 2.6 0.7 0 1.4-0.7 0.7-0.6 0.7-1.7z"/>
					<path id="&lt;Compound Path&gt;" class="s4" d="m249.5 334.9h-4.2v30.6l-2.8-4.2v-21.4q0-2.4-1.1-3.8-1.2-1.4-3-1.2l-2.7-3.9q1.7-0.3 2.5-0.3 3 0 4.7 4.2-0.4-6.2-0.4-9.7l1.6 1.8q0.2 1.5 0.3 2 0.2 1.1 0.7 1.9h1.6z"/>
					<path id="&lt;Compound Path&gt;" class="s4" d="m268.7 334.9h-4.1v30.7l-1.6-3q0-1.6 0-2.1 0-4.4-1.9-9.7-2.3-5.9-5.1-6.1 1 1.9 1 3.5 0 4.4-3.2 4.4-4.2 0-4.2-5.8 0-3 1.5-5 1.6-2.1 3.8-2.1 4 0 6.9 7.4v-12.2h-13.6l-2.8-4h20.4z"/>
					<path id="&lt;Compound Path&gt;" class="s4" d="m288.3 334.9h-10.7q0.3 0.6 0.9 1.3 5.4 1.6 5.4 8.9 0 3.3-1.7 5.4-0.9 1.2-3.7 3.3 3.2 2.8 8.1 9.3l1.1 6.2q-7-11.2-16.5-14.3l-3.1-9.1q3.7 3.2 6.8 3.2 1.6 0 3.5-1.2 2.2-1.4 2.2-3.5 0-1.9-0.8-3-0.8-1.1-2.1-0.9-0.2 2.1-1.4 3.7-1.3 1.7-2.8 1.7-1.1 0-1.9-1-0.9-0.9-0.9-2.4 0-2.4 1.4-4.3 1.2-1.8 3-2.2l-0.9-1.1h-6.3l-2.8-4h14.3q2.4 0 2.4-1.5 0-1.2-2.6-1.2-1 0-2.9 0.2-1.9 0.2-2.9 0.2-2.4 0-4.4-1.7-2.2-1.9-2.2-5.1 0-0.9 0.6-2.2 0.6-1.4 1.2-1.4l2 0.2q-1.9 1.6-1.9 2.8 0 1 1 1.8 0.7 0.6 1.5 0.6 0.8 0 2.4-0.3 1.6-0.3 2.5-0.3 8.1 0 8 7.9h1.4z"/>
				</g>
			</g>
			<g id="&lt;Group&gt;">
				<g id="&lt;Group&gt;">
					<path id="&lt;Compound Path&gt;" class="s4" d="m343.8 333.3h-4.1v29.7l-3-4 0.2-17.8q0-1.4-1.2-3.8-1.3-2.3-2.2-2.3-1.3 0-1.7 1.4 3 3 3 5.8 0 4.2-3 4.2-1.7 0-3-2.5-1.3 2.8-3.3 2.8-1.2 0-2-1.4-0.9-1.4-0.9-3.1 0-2 1-3.9 1-1.9 2.4-2.7-0.9-2.4-3.4-2.4-0.4 0-0.9 0-0.7 0-0.9 0l-2.9-4h5.3q1.5 0 2.8 1.2 1.3 1.3 1.9 3.1 1.9-4.3 4.8-4.3 1.6 0 4.8 7.1-0.4-6.8-0.6-12.9 1.3 1.5 2.1 2.7 0.2 2.8 2 3.1z"/>
					<path id="&lt;Compound Path&gt;" class="s4" d="m365.1 328.3q-4.6-4.9-5.2-5.4-3-2.5-6.1-2.5-2 0-4.2 2-2.4 2.1-2.6 4.7l0.7 2.1h2l2.8 4h-4v29.5l-2.9-3.9v-25.6h-2.7l-2.8-4h5.1q-1.4-1.8-1.4-3.4 0-3.7 2.8-6.7 2.6-3 5.3-3 6.4 0 12.3 8.5z"/>
					<path id="&lt;Compound Path&gt;" class="s4" d="m380.5 333.2h-28.7l-2.9-4h28.9zm-2.4 12.2q0 2.4-1.1 4.4-1.1 2.2-2.8 2.2-1 0-1.9-1.1-0.9-1.1-0.9-2.5 0-0.7 0.5-2.3 0.7-1 1.7-1 1.3 0 1.9 2.1 0.2-0.1 0.2-0.7 0-4-2.1-4-1.2 0-2.5 1.5-1.3 1.5-1.3 3.2 1.5 2.2 1.5 5 0 3.5-1.8 5.7-1.7 2.2-4.1 2.2-8.3 0-12.9-23.8l2.4 1.8q1.1 3.7 2.3 7.4 1.4 4.3 3.1 6.4 2.2 2.8 5.3 2.8 1.4 0 2.3-1 0.9-1.1 0.9-3 0-0.9-0.6-1.7-0.7 0.8-1.6 0.8-1.2 0-2-1.2-0.7-1.1-0.7-2.7 0-1.5 0.7-2.6 0.8-1.2 1.8-1.2 0.8 0 1.7 0.6 0.7-0.7 0.7-1.7 0-0.9-0.9-1.5-1-0.7-1.7-0.7-2.5 0-3.8 2.4 0.9 1.1 0.9 2.9 0 3-2.1 3-1.3 0-2.1-1.3-0.9-1.2-0.9-2.9 0-3.7 2.5-6.3 2.2-2.4 4.9-2.4 2.5 0 3.7 1.6 1.1 1.7 1.4 5.1 1.6-2.2 3.2-2.2 1.8 0 3 2 1.2 2.1 1.2 4.7z"/>
				</g>
			</g>
		</g>
		<g id="&lt;Group&gt;">
			<g id="&lt;Group&gt;">
				<path id="&lt;Path&gt;" class="s0" d="m294.7 206.4l-0.4 79.1c0 0.5-0.4 1-1 1-0.5 0-1-0.5-1-1l-0.3-79.1c0-0.8 0.6-1.4 1.3-1.4 0.8 0 1.4 0.6 1.4 1.4z"/>
			</g>
			<g id="&lt;Group&gt;">
				<path id="&lt;Path&gt;" class="s0" d="m301.4 226.6l-7.1 59c0 0.5-0.5 0.9-1.1 0.9-0.5-0.1-0.9-0.6-0.9-1.1l6.3-59.1c0.1-0.8 0.8-1.3 1.5-1.2 0.8 0 1.4 0.7 1.3 1.5q0 0 0 0z"/>
			</g>
			<g id="&lt;Group&gt;">
				<path id="&lt;Path&gt;" class="s0" d="m313.4 208.9l-19.1 76.8c-0.1 0.6-0.7 0.9-1.2 0.7-0.5-0.1-0.9-0.6-0.7-1.2l18.3-76.9c0.2-0.8 0.9-1.2 1.7-1 0.7 0.1 1.2 0.9 1 1.6z"/>
			</g>
			<g id="&lt;Group&gt;">
				<path id="&lt;Path&gt;" class="s0" d="m315.1 230.1l-20.8 55.7c-0.2 0.5-0.8 0.8-1.3 0.6-0.5-0.2-0.8-0.8-0.6-1.3l20.2-55.9c0.3-0.7 1.1-1 1.7-0.8 0.7 0.3 1.1 1 0.8 1.7z"/>
			</g>
			<g id="&lt;Group&gt;">
				<path id="&lt;Path&gt;" class="s0" d="m331 215.7l-36.8 70.2c-0.2 0.5-0.8 0.7-1.3 0.5-0.5-0.3-0.7-0.9-0.5-1.4l36.1-70.6c0.4-0.7 1.2-0.9 1.9-0.6 0.7 0.4 0.9 1.2 0.6 1.9z"/>
			</g>
			<g id="&lt;Group&gt;">
				<path id="&lt;Path&gt;" class="s0" d="m327.8 236.8l-33.6 49.2c-0.4 0.5-1 0.6-1.4 0.3-0.5-0.3-0.6-0.9-0.3-1.4l33-49.7c0.4-0.6 1.3-0.8 1.9-0.4 0.7 0.4 0.9 1.3 0.4 2q0 0 0 0z"/>
			</g>
			<g id="&lt;Group&gt;">
				<path id="&lt;Path&gt;" class="s0" d="m346.6 226.4l-52.5 59.7c-0.4 0.5-1 0.5-1.4 0.1-0.4-0.3-0.5-1-0.1-1.4l51.8-60.3c0.5-0.6 1.4-0.7 2.1-0.2 0.6 0.6 0.6 1.5 0.1 2.1q0 0 0 0z"/>
			</g>
			<g id="&lt;Group&gt;">
				<path id="&lt;Path&gt;" class="s0" d="m338.6 246.2l-44.6 40c-0.4 0.4-1 0.4-1.4-0.1-0.4-0.4-0.3-1 0.1-1.4l44-40.6c0.5-0.6 1.4-0.5 2 0 0.5 0.6 0.5 1.5-0.1 2.1q0 0 0 0z"/>
			</g>
			<g id="&lt;Group&gt;">
				<path id="&lt;Path&gt;" class="s0" d="m361.8 238.8l-67.9 47.5c-0.4 0.3-1.1 0.2-1.4-0.2-0.3-0.5-0.2-1.1 0.3-1.4l67.4-48.1c0.6-0.5 1.5-0.3 1.9 0.3 0.4 0.6 0.3 1.5-0.3 1.9z"/>
			</g>
			<g id="&lt;Group&gt;">
				<path id="&lt;Path&gt;" class="s0" d="m346.9 257.8l-53.1 28.6c-0.5 0.2-1.1 0-1.3-0.5-0.3-0.4-0.1-1 0.3-1.3l52.6-29.4c0.8-0.4 1.7-0.1 2.1 0.6 0.4 0.7 0.1 1.6-0.6 2q0 0 0 0z"/>
			</g>
			<g id="&lt;Group&gt;">
				<path id="&lt;Path&gt;" class="s0" d="m372.7 254.7l-79 31.7c-0.5 0.2-1.1 0-1.3-0.5-0.2-0.6 0-1.1 0.6-1.3l78.6-32.4c0.7-0.3 1.5 0 1.8 0.7 0.3 0.7 0 1.5-0.7 1.8z"/>
			</g>
			<g id="&lt;Group&gt;">
				<path id="&lt;Path&gt;" class="s0" d="m356.6 268.8l-63 17.6c-0.5 0.2-1.1-0.1-1.2-0.7-0.2-0.5 0.1-1 0.7-1.2l62.8-18.4c0.7-0.2 1.5 0.2 1.7 1 0.2 0.7-0.2 1.5-0.9 1.7q-0.1 0-0.1 0z"/>
			</g>
			<g id="&lt;Group&gt;">
				<path id="&lt;Path&gt;" class="s0" d="m381.3 273.2l-87.8 13.3c-0.6 0.1-1.1-0.3-1.2-0.9 0-0.5 0.3-1 0.9-1.1l87.7-13.9c0.7-0.2 1.4 0.3 1.5 1.1 0.1 0.7-0.4 1.4-1.1 1.5z"/>
			</g>
			<g id="&lt;Group&gt;">
				<path id="&lt;Path&gt;" class="s0" d="m362.5 283.2l-69.1 3.3c-0.6 0-1-0.4-1.1-1 0-0.5 0.4-1 1-1l69.1-4.1c0.7 0 1.4 0.6 1.4 1.3 0.1 0.8-0.5 1.4-1.3 1.5q0 0 0 0z"/>
			</g>
			<g id="&lt;Group&gt;">
				<path id="&lt;Path&gt;" class="s0" d="m294.7 206.4l-0.4 79.1c0 0.5-0.4 1-1 1-0.5 0-1-0.5-1-1l-0.3-79.1c0-0.8 0.6-1.4 1.3-1.4 0.8 0 1.4 0.6 1.4 1.4z"/>
			</g>
			<g id="&lt;Group&gt;">
				<path id="&lt;Path&gt;" class="s0" d="m288.1 226.3l6.2 59.1c0.1 0.5-0.3 1-0.9 1.1-0.5 0-1-0.4-1.1-0.9l-7-59c-0.1-0.7 0.4-1.4 1.2-1.5 0.8-0.1 1.5 0.4 1.6 1.2q0 0 0 0z"/>
			</g>
			<g id="&lt;Group&gt;">
				<path id="&lt;Path&gt;" class="s0" d="m275.9 208.3l18.4 76.9c0.1 0.6-0.2 1.1-0.7 1.2-0.6 0.2-1.1-0.2-1.2-0.7l-19.1-76.8c-0.2-0.7 0.2-1.5 1-1.6 0.7-0.2 1.4 0.2 1.6 1z"/>
			</g>
			<g id="&lt;Group&gt;">
				<path id="&lt;Path&gt;" class="s0" d="m274 229.2l20.3 55.9c0.2 0.6-0.1 1.1-0.6 1.3-0.5 0.2-1.1-0.1-1.3-0.6l-20.9-55.7c-0.2-0.7 0.1-1.4 0.8-1.7 0.7-0.2 1.5 0.1 1.7 0.8z"/>
			</g>
			<g id="&lt;Group&gt;">
				<path id="&lt;Path&gt;" class="s0" d="m258.1 214.4l36.1 70.6c0.3 0.5 0.1 1.1-0.4 1.4-0.5 0.2-1.1 0-1.4-0.5l-36.7-70.2c-0.4-0.7-0.1-1.5 0.6-1.9 0.6-0.3 1.5-0.1 1.8 0.6z"/>
			</g>
			<g id="&lt;Group&gt;">
				<path id="&lt;Path&gt;" class="s0" d="m261.2 235.2l33 49.7c0.3 0.5 0.1 1.1-0.3 1.4-0.5 0.3-1.1 0.2-1.4-0.3l-33.7-49.2c-0.4-0.7-0.2-1.5 0.4-2 0.6-0.4 1.5-0.2 2 0.4q0 0 0 0z"/>
			</g>
			<g id="&lt;Group&gt;">
				<path id="&lt;Path&gt;" class="s0" d="m242.3 224.5l51.8 60.3c0.3 0.4 0.3 1.1-0.1 1.4-0.4 0.4-1.1 0.3-1.4-0.1l-52.5-59.7c-0.6-0.6-0.5-1.5 0.1-2 0.6-0.6 1.5-0.5 2.1 0.1q0 0 0 0z"/>
			</g>
			<g id="&lt;Group&gt;">
				<path id="&lt;Path&gt;" class="s0" d="m250 244.1l44 40.6c0.4 0.4 0.4 1 0.1 1.5-0.4 0.4-1 0.4-1.4 0l-44.6-40c-0.6-0.6-0.7-1.5-0.1-2 0.5-0.6 1.4-0.7 2-0.2q0 0.1 0 0.1z"/>
			</g>
			<g id="&lt;Group&gt;">
				<path id="&lt;Path&gt;" class="s0" d="m226.5 236.6l67.4 48.1c0.5 0.3 0.6 0.9 0.2 1.4-0.3 0.4-0.9 0.5-1.3 0.2l-67.9-47.5c-0.6-0.4-0.8-1.3-0.3-1.9 0.4-0.6 1.2-0.8 1.9-0.3z"/>
			</g>
			<g id="&lt;Group&gt;">
				<path id="&lt;Path&gt;" class="s0" d="m241.2 255.2l52.6 29.4c0.5 0.3 0.7 0.9 0.4 1.4-0.3 0.4-0.9 0.6-1.4 0.4l-53-28.6c-0.7-0.4-1-1.3-0.6-2 0.4-0.7 1.3-1 2-0.6q0 0 0 0z"/>
			</g>
			<g id="&lt;Group&gt;">
				<path id="&lt;Path&gt;" class="s0" d="m215 252.2l78.7 32.4c0.5 0.2 0.8 0.7 0.6 1.3-0.3 0.5-0.8 0.7-1.3 0.5l-79-31.7c-0.7-0.2-1-1-0.8-1.7 0.3-0.7 1.1-1.1 1.8-0.8z"/>
			</g>
			<g id="&lt;Group&gt;">
				<path id="&lt;Path&gt;" class="s0" d="m230.8 266.1l62.8 18.4c0.5 0.2 0.8 0.7 0.7 1.3-0.2 0.5-0.7 0.8-1.2 0.6l-63.1-17.6c-0.7-0.2-1.1-1-0.9-1.7 0.2-0.7 0.9-1.2 1.7-1q0 0 0 0z"/>
			</g>
			<g id="&lt;Group&gt;">
				<path id="&lt;Path&gt;" class="s0" d="m205.7 270.6l87.8 13.9c0.5 0.1 0.9 0.6 0.8 1.1-0.1 0.6-0.6 1-1.1 0.9l-87.9-13.3c-0.7-0.1-1.2-0.8-1.1-1.5 0.1-0.8 0.8-1.3 1.5-1.1z"/>
			</g>
			<g id="&lt;Group&gt;">
				<path id="&lt;Path&gt;" class="s0" d="m224.3 280.4l69.1 4.1c0.5 0 1 0.5 0.9 1 0 0.6-0.5 1-1 1l-69.1-3.3c-0.8-0.1-1.4-0.7-1.4-1.5 0.1-0.7 0.7-1.3 1.5-1.3q0 0 0 0z"/>
			</g>
			<path id="&lt;Path&gt;" class="s0" d="m347.3 284.2c-1-17.6-24.8-31.8-54-31.8-29.1 0-52.9 14.2-53.9 31.8q-0.1 0.3-0.1 0.6 0 0.9 0.3 1.7h107.5q0.3-0.8 0.3-1.7-0.1-0.3-0.1-0.6z"/>
		</g>
		<g id="&lt;Group&gt;">
			<path id="&lt;Compound Path&gt;" class="s2" d="m265.3 526.5h-17.5v0.8q5.5 0 9.6 3.4 3.9 3.1 3.9 6.9 0 1.9-1.9 3.4-1.8 1.4-4.6 1.4-2.1 0-3.8-1-1.6-1-1.6-2.3 0-1.6 2.4-2.9 1.2-0.3 2.4-0.3 1.6 0 2.9 0.6-0.5-2.1-3.2-3.6-2.8-1.5-6.1-1.3v19.7l-2.6-1.7q-4.6-9.1-17.1-10l-5.6-4.6q9.5-5.2 20.4-7.4v-1.1h-21.4l-5.1-3.3h44zm-22.5 15.4v-10.1q-4.8 1.3-10.7 4 6.8 2.2 10.7 6.1z"/>
			<path id="&lt;Compound Path&gt;" class="s2" d="m259.6 558.9q0 0.5-0.3 3-4.8-6-11.1-8.3-2.8 2.8-7.5 2.8-2.6 0-4.6-1-2.2-1.1-2.2-2.8 0-1.8 2.3-3.1 2.3-1.2 5.2-1.2 1.9 0 4.7 1 0-1.1-0.3-2.2l0.5-1.7q2.2 1.1 2.9 2.3 0.4 0.8 0.5 3 7.2 3 8.5 5.5 1.4 1 1.4 2.7zm-15.6-7.3q-0.2-0.3-1.6-0.3-3.8 0-3.8 1.2 0 0.6 1.2 0.6 2.9 0 4.2-1.5z"/>
			<path id="&lt;Compound Path&gt;" class="s2" d="m303.3 522.4q-8.1-4.2-9.2-4.5-5.3-2.2-10.9-2.2-3.5 0-7.3 1.7-4.3 1.8-4.6 4l1.1 1.8h3.6l5 3.3h-7.1v24.9l-5.1-3.3v-21.6h-4.9l-5-3.3h9.2q-2.6-1.6-2.6-2.9 0-3.1 5-5.7 4.7-2.5 9.4-2.5 11.3 0 21.9 7.2z"/>
			<path id="&lt;Compound Path&gt;" class="s2" d="m314.2 526.6h-8.2q1.3 1.6 1.3 3 0 2.7-4.5 5.5-0.9 0.6-8.5 4.5-4.5 2.4-4.5 3.7 0 0.9 1.6 0.9 5.6 0 10.1-2.6-1.8-1.2-1.8-2.1 0-1.2 1.5-2.1 1.4-1 3.2-1 2.1 0 3.6 1.1 1.6 1 1.6 2.4 0 3.2-6 5.4-5.1 1.8-10.2 1.8-8.8 0-8.8-4.6 0-2.3 2-3.6 2.2-1.3 4.5-2.5-6.8-0.8-6.8-4.6 0-3 3.2-5.2h-7.6l-5-3.4h24.9l2.2 0.9q1.1-0.5 0.8-1.2l0.1-0.4q0-0.3-0.3-0.8-2.1-0.6-2.9-0.6-1.9 0-5.7 0.1-3.9 0.2-5.8 0.2-3.6 0-6.8-1.5-3.5-1.7-3.5-4 0-2.5 1.9-3.7l3.2 0.6q-1.4 1.2-1.4 1.9 0 2.5 5.9 2.5 1.6 0 4.8-0.1 3.2-0.2 4.8-0.2 4.1 0 6.9 1.8 2.8 1.8 3.1 4.5h2.2q2.8 1.8 4.9 3.4zm-16.9 6.6l-4.8-4.1q-2.5 0.9-2.5 2.6 0 2.3 3.2 2.3 3.7 0 4.1-0.8zm4.5-4.5q0-2.1-3.3-2.1-3.1 0-3.2 0.8 2.9 2.5 4.7 3.7 1.8-0.7 1.8-2.4z"/>
			<path id="&lt;Compound Path&gt;" class="s2" d="m348.3 526.5h-7.2v25.4q-2.4-1.7-5.8-5.3-2.7-2.9-4.9-3.9-3.4-1.6-9.7-1.8l-5.4-4.6q5.5-3.7 10.4-6.1-1.6-1-5.6-1.4-3.9-0.5-6.3-1.8-1.9-1.3-5.6-3.8h35.3zm-17.8 20q0 1.2-1.2 2.1-1.3 0.9-3.1 0.9-1.9 0-3.3-0.9-1.4-0.9-1.4-2.2 0-1.2 1.2-2.1 1.3-0.8 3.1-0.8 1.8 0 3.3 0.8 1.4 0.9 1.4 2.2zm5.6-3.7v-16.3h-10q2.5 1.3 7.2 5.1-2.8 1.8-8.2 5.6 6.8 1.8 11 5.6z"/>
			<path id="&lt;Compound Path&gt;" class="s2" d="m367 526.5h-7.5v25.9l-4.9-3.5v-18.2q0-2-2.1-3.2-2-1.1-5.1-1l-5-3.2q3.2-0.3 4.6-0.3 5.2 0 8.3 3.5-0.7-5.2-0.7-8.2l2.8 1.6q0.3 1.3 0.5 1.7 0.5 0.9 1.3 1.6h2.9z"/>
		</g>
		<g id="&lt;Group&gt;">
			<path id="&lt;Compound Path&gt;" class="s0" d="m223.2 413.1q-1 0-3 0 0.4 1.4 0.4 3.7 0 1.9-1 3.5-1.1 1.6-2.7 1.6-1.3 0-2.7-1.3-1.4-1.4-2-3.1-0.5 1.5-1.5 2.7-1.2 1.5-2.3 1.5-0.9 0-2.1-1.3-1.2-1.4-1.2-2.5l0.8-2q0.5 0.7 1.6 1.8 0.9-0.1 1.6-1.9 0.6-1.3 0.7-2.7-2.1 0-6.2 0l-2.5-3.2h19.8q0.9 1.2 2.3 3.2zm-5 3q0-3-0.6-3h-4.1q0.1 1.5 0.9 2.9 0.9 1.7 1.9 1.7 1.9 0 1.9-1.6z"/>
			<path id="&lt;Compound Path&gt;" class="s0" d="m223.9 443.9q-3.2-4-6.8-6.6-3.2-2.3-7.9-4.1l-2.3-7q2.8 2.6 5.9 2.6 1.8 0 3.2-1.1 1.7-1.3 1.7-3.4 0-1.8-1.1-1.8-0.5 0-0.8 0.2-0.1 1.8-1.2 3.2-1.2 1.4-2.6 1.4-1 0-1.7-0.7-0.9-0.8-0.9-2.1 0-2.5 2.1-4.1 1.7-1.2 3.9-1.2 2.3 0 3.7 1.9 1.5 2 1.5 4.9 0 4.1-4.3 6.7 2.3 1.5 7.1 7.7z"/>
			<path id="&lt;Compound Path&gt;" class="s0" d="m231.9 413.1h-3.7v24.3l-2.3-3.3v-17.1q0-1.9-1.1-3-1-1.1-2.5-0.9l-2.4-3.1q1.5-0.2 2.2-0.2 2.6 0 4.1 3.3-0.3-5-0.3-7.7l1.3 1.4q0.2 1.2 0.3 1.6 0.2 0.9 0.6 1.5h1.4z"/>
			<path id="&lt;Compound Path&gt;" class="s0" d="m250.3 409.2q-4-3.9-4.6-4.3-2.6-2-5.3-2-1.7 0-3.6 1.6-2 1.7-2.2 3.7l0.6 1.7h1.7l2.5 3.2h-3.5v23.4l-2.5-3.1v-20.3h-2.4l-2.4-3.2h4.4q-1.2-1.5-1.2-2.7 0-2.9 2.4-5.3 2.3-2.4 4.6-2.4 5.5 0 10.7 6.8z"/>
			<path id="&lt;Compound Path&gt;" class="s0" d="m259 413.1h-3.4v23.2q-1.1-1-2.6-3 0.1-1.1 0.2-4.2 0.1-2.6 0.1-4.2 0-5.1-1.7-7.1l-5.8 7.6-3.3-1.6q0.7-0.8 1.3-1.6 0.8-1.1 0.8-1.9 0-1.8-0.6-1.8-0.5 0-1.3 0.5-0.7 0.4-1.2 0.4-0.6 0-1.1-0.7-0.6-0.8-0.6-1.6 0-2.6 2.5-4.8 2.4-2 4.6-2 2 0 3.9 1.6 1.6 1.5 2.7 4-0.3-4.3-0.3-9.8l1.5 1.5 0.2 0.4q0.1 2 1.6 1.9zm-9.3 1.7q-1-1.1-2.1-1.1-2.3 0-3.4 1.9 1 0.2 1.5 1.2 0.6 0.9 0.8 2.2z"/>
			<path id="&lt;Compound Path&gt;" class="s0" d="m279.5 413.1h-21.5l-2.5-3.2h21.4zm-2.7 11q0 3.5-2.1 5.8-2.1 2.4-4.8 2.4-7.5 0-11.2-17.3l1.8 0.9q1.8 5.6 3.4 8 2.5 3.8 6.1 3.8 1.6 0 3.1-1.6 1.5-1.6 1.5-3.6 0-1.5-0.7-2.9-0.9-1.5-2-1.5l-0.6 0.1q0.5 1 0.5 2.2 0 3.7-3.1 3.7-1.5 0-2.4-1.4-0.9-1.4-0.9-3.4 0-2.2 1.4-3.7 1.3-1.4 3.1-1.4 2.9 0 5 3.1 1.9 2.9 1.9 6.8z"/>
			<path id="&lt;Compound Path&gt;" class="s0" d="m289.6 416.5q0 2.2-1.2 4-1.3 1.7-3 1.7-1.8 0-3.1-1.6-1.3-1.6-1.3-3.9 0-2.2 1.4-4 1.4-1.7 3.1-1.7 1.7 0 2.9 1.6 1.2 1.7 1.2 3.9zm-0.1 12.9q0 2.3-1.2 4.1-1.2 1.8-3 1.8-1.7 0-3-1.6-1.3-1.7-1.3-3.9 0-2.2 1.4-4.1 1.4-1.8 3.1-1.8 1.7 0 2.9 1.6 1.1 1.7 1.1 3.9zm-2.4-13.6q0-1.5-0.9-1.5-1.1 0-1.8 1.1-0.7 1.1-0.7 2.5 0 1.3 0.7 1.3 1.1 0 1.9-1 0.8-1 0.8-2.4zm-0.1 13.5q0-0.8-0.3-1.5-0.4-0.7-1-0.7-0.9 0-1.5 1.1-0.5 1-0.5 2.3 0 2 0.9 2 1 0 1.7-1 0.7-1 0.7-2.2z"/>
			<path id="&lt;Compound Path&gt;" class="s0" d="m304 426.9q0 3.5-2.3 6.3-2.4 2.9-5.1 2.9-1.3 0-2.3-1-1.3-1.2-1.3-2.8 0-1.9 1.4-3.3 1.2-1.4 2.7-1.4 2.3 0 3.5 1.4 0.8-1.2 0.8-2.5 0-1.6-2.1-4.4-2-2.4-4-4.9-2.2-2.8-2.2-4.5 0-1.3 0.8-2.3 0.7-1.1 1.7-1.1 2.1 0 2.1 3.3 0 0.5 0 1.3 3 3.7 4.2 5.8 2.1 3.8 2.1 7.2z"/>
			<path id="&lt;Compound Path&gt;" class="s0" d="m322.2 426.1q0 3-2.5 5.8-2.5 2.9-4.8 2.8h-0.7q0.3-1.4 0.5-2.8 0.3-1.7 0.3-2.8 0-2.1-1.9-4.3-0.8-0.4-1.3-0.4-0.6 0-1.1 1.5-0.5 1.4-0.5 2.2 0 0.7 0.3 1.2h0.4q1.8-0.1 1.8 2.5 0 2.9-1.9 2.9-1.5 0-2.5-1.7-0.9-1.6-0.9-3.6 0-3 1.5-5.4 1.5-2.6 3.8-2.6 2.2 0 3.7 2.5 1.5 2.4 1.3 5.4 1.8-1.6 1.8-3.4 0-2.6-3.3-4.5-3.1-1.6-6.2-3.3-3.3-2.2-3.3-5.6 0-1.3 0.6-2.3 0.6-1.1 1.6-1.1 0.8 0 1.4 0.8 0.6 0.8 0.6 1.9 0 0.6-0.2 1-0.4 0.7-0.4 0.8 0.2 0.4 3.4 1.6 3.6 1.4 5.5 3.2 3 2.9 3 7.7z"/>
			<path id="&lt;Compound Path&gt;" class="s0" d="m339.1 426.1q0 3-2.5 5.8-2.5 2.9-4.8 2.8h-0.7q0.3-1.4 0.5-2.8 0.3-1.7 0.3-2.8 0-2.1-1.9-4.3-0.8-0.4-1.3-0.4-0.6 0-1.1 1.5-0.5 1.4-0.5 2.2 0 0.7 0.3 1.2h0.4q1.8-0.1 1.8 2.5 0 2.9-1.9 2.9-1.5 0-2.5-1.7-0.9-1.6-0.9-3.6 0-3 1.5-5.4 1.5-2.6 3.7-2.6 2.3 0 3.8 2.5 1.5 2.4 1.3 5.4 1.7-1.6 1.7-3.4 0-2.6-3.2-4.5-3.1-1.6-6.2-3.3-3.3-2.2-3.3-5.6 0-1.3 0.6-2.3 0.6-1.1 1.6-1.1 0.8 0 1.4 0.8 0.6 0.8 0.6 1.9 0 0.6-0.2 1-0.4 0.7-0.4 0.8 0.2 0.4 3.4 1.6 3.6 1.4 5.5 3.2 3 2.9 3 7.7z"/>
			<path id="&lt;Compound Path&gt;" class="s0" d="m356 426.1q0 3-2.5 5.8-2.5 2.9-4.8 2.8h-0.7q0.3-1.4 0.5-2.8 0.3-1.7 0.3-2.8 0-2.1-1.9-4.3-0.8-0.4-1.3-0.4-0.6 0-1.1 1.5-0.5 1.4-0.5 2.2 0 0.7 0.3 1.2h0.4q1.8-0.1 1.8 2.5 0 2.9-1.9 2.9-1.5 0-2.5-1.7-0.9-1.6-0.9-3.6 0-3 1.5-5.4 1.5-2.6 3.7-2.6 2.3 0 3.8 2.5 1.5 2.4 1.3 5.4 1.7-1.6 1.7-3.4 0-2.6-3.3-4.5-3-1.6-6.1-3.3-3.3-2.2-3.3-5.6 0-1.3 0.6-2.3 0.6-1.1 1.6-1.1 0.8 0 1.4 0.8 0.6 0.8 0.6 1.9 0 0.6-0.2 1-0.4 0.7-0.4 0.8 0.2 0.4 3.4 1.6 3.6 1.4 5.5 3.2 3 2.9 3 7.7z"/>
			<path id="&lt;Compound Path&gt;" class="s0" d="m375.7 409.2q-3.9-3.9-4.5-4.3-2.6-2-5.3-2-1.7 0-3.6 1.6-2 1.7-2.2 3.7l0.5 1.7h1.8l2.4 3.2h-3.4v23.4l-2.5-3.1v-20.3h-2.4l-2.5-3.2h4.5q-1.2-1.5-1.2-2.7 0-2.9 2.4-5.3 2.3-2.4 4.6-2.4 5.5 0 10.7 6.8z"/>
			<path id="&lt;Compound Path&gt;" class="s0" d="m382.6 413.1h-3.2v23.2q-1-1.1-1.3-1.7-0.3-0.5-0.8-2.2-0.9-3-3.3-4.9-2.2-1.8-4.9-2.2l-3.6-5.8q1.6 0.5 2.4 0.5 1.6 0 3.5-0.9 2.3-1.1 2.3-2.8 0-0.9-0.5-1.7-2.7 3.4-5.6 3.4-1.2 0-2-1-0.9-1-0.9-2.5 0-1.2 0.6-2 0.7-0.9 1.6-0.9 1.7 0 2 1.9 0.9-0.3 1.8-1.5 0.8-1.1 1.6-2.1 2.3 2.6 2.6 3 1.3 1.9 1.3 3.9 0 1.9-0.9 3.5-1 1.6-2.4 2.4 2.5 1.9 4.1 4.6v-21.8l1.7 1.3v0.8q0 1.2 0.2 1.7 0.3 0.5 1.2 0.6z"/>
			<path id="&lt;Compound Path&gt;" class="s0" d="m379 441q-1.4-1.4-2.4-3.1-0.6-0.9-1.3-1-0.6-0.2-4.3-0.2-3.7 0-5.5-1-2.8-1.5-2.8-5.6 0-1.4 0.8-4.8l1.4 1.8q-0.4 0.6-0.4 1.4 0 3.1 2.3 3.7 2.5 0.2 5 0.4 3.3 0.4 5 2.6v-12.6l2.2-2.9z"/>
			<path id="&lt;Compound Path&gt;" class="s0" d="m392.9 416.5q0 2.2-1.3 4-1.2 1.7-2.9 1.7-1.8 0-3.1-1.6-1.4-1.6-1.4-3.9 0-2.2 1.4-4 1.4-1.7 3.1-1.7 1.7 0 3 1.6 1.2 1.7 1.2 3.9zm-0.1 12.9q0 2.3-1.2 4.1-1.3 1.8-3 1.8-1.7 0-3-1.6-1.4-1.7-1.4-3.9 0-2.2 1.4-4.1 1.4-1.8 3.2-1.8 1.7 0 2.8 1.6 1.2 1.7 1.2 3.9zm-2.4-13.6q0-1.5-1-1.5-1 0-1.7 1.1-0.7 1.1-0.7 2.5 0 1.3 0.7 1.3 1 0 1.8-1 0.9-1 0.9-2.4zm-0.1 13.5q0-0.8-0.4-1.5-0.3-0.7-0.9-0.7-1 0-1.5 1.1-0.5 1-0.5 2.3 0 2 0.9 2 0.9 0 1.6-1 0.8-1 0.8-2.2z"/>
		</g>
		<path id="&lt;Path&gt;" class="s1" d="m117.6 417.9l-11.2-7.8-8.7 10.4-0.8-13.6-13.7-0.3 10.2-9.1-8.3-10.9 13.5 2.3 3.3-13.2 6.6 11.9 12.5-5.6-5.2 12.6 12.1 6.2-13.1 3.8z"/>
		<path id="&lt;Path&gt;" class="s1" d="m139.9 457.8l-11.1-7.9-8.8 10.5-0.8-13.6-13.6-0.3 10.2-9.1-8.3-10.9 13.4 2.3 3.4-13.3 6.6 12 12.4-5.7-5.2 12.7 12.2 6.1-13.1 3.8z"/>
		<path id="&lt;Path&gt;" class="s1" d="m509.9 418.6l-11.2-7.9-8.7 10.5-0.8-13.6-13.6-0.3 10.1-9.1-8.2-10.9 13.4 2.3 3.3-13.3 6.7 12 12.4-5.7-5.2 12.7 12.1 6.1-13.1 3.8z"/>
		<path id="&lt;Path&gt;" class="s1" d="m478.3 462.1l-11.2-7.9-8.7 10.5-0.8-13.6-13.7-0.3 10.2-9.1-8.3-10.9 13.5 2.3 3.3-13.3 6.6 12 12.5-5.7-5.3 12.6 12.2 6.2-13.1 3.8z"/>
		<g id="&lt;Group&gt;">
			<path id="&lt;Path&gt;" class="s2" d="m507.5 511.1c-1.1-6.9 13.6-40.5 22.2-50.7 4.3-5.2 8.1-7.7 11.5-7.7 2.4 0 4.4 1.2 6.3 3.6l0.3 0.5v0.6c-0.1 0.2-0.5 4.3 3.5 8.5 0.8 0.8 1.5 1.5 2.2 2.1 3.6 3.3 5.4 5.5 0.9 11.7-3.7 5-23.1 30.4-45.2 32.7l-1.4 0.1z"/>
			<path id="&lt;Compound Path&gt;" class="s0" d="m541.2 451.2c-3.9 0-8 2.7-12.7 8.2-8.2 9.8-23.7 44.1-22.4 52l0.4 2.8 2.8-0.3c22.8-2.4 42.6-28.2 46.3-33.3 5.1-7 2.8-10.1-1.1-13.7-0.6-0.6-1.4-1.3-2.1-2.1-3.4-3.5-3.2-7.1-3.1-7.3l0.1-1.2-0.7-0.9c-2.2-2.8-4.7-4.2-7.5-4.2zm0 3c2.3 0 3.9 1.4 5.1 3 0 0-0.6 5 3.9 9.7 4.6 4.8 7.8 5.4 3 11.9-4.8 6.5-23.4 29.9-44.2 32.1-1-6.1 13.3-39.4 21.8-49.5 4.5-5.4 7.9-7.2 10.4-7.2z"/>
		</g>
		<g id="&lt;Group&gt;">
			<path id="&lt;Path&gt;" class="s2" d="m89.9 509.1c-22.1-2.4-41.6-27.7-45.3-32.8-4.5-6.1-2.7-8.3 0.9-11.6 0.7-0.6 1.4-1.3 2.2-2.2 4-4.2 3.6-8.4 3.6-8.5l-0.1-0.6 0.4-0.4c1.8-2.4 3.9-3.6 6.2-3.6 3.4 0 7.2 2.5 11.6 7.7 8.5 10.1 23.2 43.8 22.1 50.7l-0.2 1.4z"/>
			<path id="&lt;Compound Path&gt;" class="s0" d="m57.8 447.9c-2.8 0-5.3 1.4-7.4 4.1l-0.8 1 0.2 1.2c0 0.1 0.3 3.7-3.2 7.3-0.7 0.8-1.4 1.4-2.1 2.1-3.8 3.6-6.2 6.6-1.1 13.6 3.7 5.2 23.6 31 46.3 33.3l2.8 0.3 0.5-2.8c1.3-7.9-14.2-42.1-22.5-51.9-4.6-5.5-8.8-8.2-12.7-8.2zm0 3c2.6 0 5.9 1.8 10.4 7.1 8.5 10.1 22.8 43.4 21.8 49.6-20.8-2.2-39.4-25.6-44.2-32.1-4.7-6.6-1.6-7.2 3-11.9 4.6-4.8 4-9.7 4-9.7 1.2-1.6 2.8-3 5-3z"/>
		</g>
		<g id="&lt;Group&gt;">
			<path id="&lt;Path&gt;" class="s2" d="m504.4 591c-20.2-28.1-80.8-39.2-81.4-39.4l-3-0.5 1.1-2.8c0.1-0.2 1.9-4.6 7.4-14.6-53.7-25.1-99-28.1-128.5-28.1-29.6 0-74.8 3-128.5 28.1 5.5 10 7.3 14.4 7.4 14.6l1.1 2.8-3 0.5c-0.6 0.2-61.2 11.3-81.4 39.4l-2.9 4-1.5-4.7c-5.3-16.8-10.3-29.5-11.6-32.8l-46-23.9 6.2-1.6c12.4-3.3 46-13.5 52.9-21 1.6-2.3 2-10.8 1.7-16.1v-1.5l1.3-0.8c0.2-0.1 20.8-11.8 56.2-23.3 32.5-10.6 84.7-23.2 148.1-23.2 63.4 0 115.6 12.6 148.1 23.2 35.4 11.5 56 23.2 56.2 23.3l1.3 0.8v1.5c-0.3 5.3 0.1 13.8 1.7 16.1 6.9 7.5 40.5 17.7 52.9 21l6.2 1.6-46.1 23.9c-1.3 3.3-6.2 16-11.6 32.8l-1.4 4.7z"/>
			<path id="&lt;Compound Path&gt;" class="s3" d="m300 443.6c-63.8 0-116.2 12.7-148.9 23.4-35.6 11.6-55.8 23-56.6 23.5l-2.7 1.5 0.2 3c0.3 6-0.3 12.8-1.3 14.5-6 6.3-34.7 15.6-51.5 20.1l-12.4 3.2 11.3 5.9 39.6 20.6c1.7 4.3 6.2 16.3 11.2 31.8l3 9.3 5.7-8c19.6-27.2 79.3-38.2 79.9-38.3l5.9-1.1-2.2-5.6c-0.1-0.2-1.7-4.1-6.3-12.6 52.2-23.9 96.2-26.7 125.1-26.7 28.9 0 72.9 2.8 125 26.7-4.6 8.5-6.1 12.4-6.2 12.6l-2.3 5.6 6 1.1c0.6 0.1 60.3 11.1 79.9 38.3l5.7 8 3-9.3c5-15.6 9.5-27.5 11.2-31.8l39.5-20.6 11.4-5.9-12.4-3.2c-16.8-4.5-45.5-13.8-51.5-20.1-1-1.7-1.6-8.5-1.3-14.5l0.2-3-2.7-1.5c-0.8-0.5-21-11.9-56.6-23.5-32.7-10.7-85.1-23.4-148.9-23.4zm0 5c122.2 0 203.1 46.2 203.1 46.2 0 0-0.7 13.8 2.3 17.8 8.7 9.7 54.2 21.7 54.2 21.7l-41.2 21.5c0 0-5.7 13.9-12 33.8-21-29.3-83-40.4-83-40.4 0 0 2-5 8.5-16.7-53-25.3-98.1-29.3-131.9-29.3-33.8 0-78.9 4-131.9 29.3 6.5 11.7 8.5 16.7 8.5 16.7 0 0-62 11.1-83 40.4-6.3-19.9-12-33.8-12-33.8l-41.2-21.5c0 0 45.5-12 54.2-21.7 3-4 2.3-17.8 2.3-17.8 0 0 80.9-46.2 203.1-46.2z"/>
		</g>
		<g id="&lt;Group&gt;">
			<path id="&lt;Compound Path&gt;" class="s4" d="m125 509.3q-4.1 4.5-4.1 10-0.1 5.1 3.4 8.8 1.7 1.8 4 2.6 2.7 1 5-0.3-1.2-0.1-1.7-0.6-2.3-2.4 1.3-5.8 1-1 2.5-0.9 1.5 0 2.3 0.9 1.3 1.4 1 3.6-0.3 2.2-2 3.8-3.9 3.6-9 2.5-4.4-0.9-7.5-4.2-3.5-3.7-4.1-9.4-0.7-6.5 3.7-10.6z"/>
			<path id="&lt;Compound Path&gt;" class="s4" d="m153.3 493.4l-5.4 3 12.3 22.3-3.2-0.7q-5.1-4.8-10.3-3.8-0.3 1-1.5 2.5-1.2 1.5-2.2 2-2.1 1.2-4.2 0.8-2-0.3-2.9-2-1.1-1.9 0.1-4 1-2 3.4-3.3 0.8-0.4 1.5-0.7-1.3-1.9-3.2-1.9-0.9 0-4.3 0.9-3.5 0.9-6.6 0.1-5.2-1.3-5.9-1.4l27-14.8zm-1.8 18l-7.2-13.1-10.2 5.6q4.9 0.4 7.4 1.5 3.4 1.5 4.8 4.7 2.1 0.4 5.2 1.3z"/>
			<path id="&lt;Compound Path&gt;" class="s4" d="m169.3 487.7l-5.9 2.3 9.5 24.4-5.1-1.9-6.7-17.1q-0.7-1.9-2.8-2.4-2-0.4-4.4 0.6l-5-1.5q2.4-1.2 3.5-1.6 4-1.6 7.7 0.7-2.4-4.7-3.5-7.5l2.7 0.6q0.8 1.1 1.1 1.5 0.6 0.7 1.5 1.1l2.3-0.9z"/>
			<path id="&lt;Compound Path&gt;" class="s4" d="m202.1 478.1l-18 5.1 1.6 5.6q0-0.1 1 2.7 1.6-0.5 3.3-3.4 1.9-3.5 2.9-4.2 2.9 0.2 5.3 2.5 2.2 2.1 2.9 4.7 1.2 4.3-1 7.8-2.3 3.8-7.5 5.2-14 3.9-22.2-15.7l3.4 0.4q1.9 5 6 8.1 4.9 3.6 10.7 2 3-0.8 5.1-3.1 2.4-2.5 1.7-4.8-0.3-1.1-1.3-1.9-0.8 1.6-3 3.7-2.4 2.3-4 2.8-5.4 1.5-7.8-6.8 0-0.2-1-4.5l-11.4 3.2-5-2.2 33.3-9.3zm-5 29q0.3 1.4-0.5 2.7-0.8 1.3-2.4 1.8-1.6 0.4-3.1-0.2-1.5-0.6-1.8-1.8-0.4-1.3 0.5-2.7 0.8-1.4 2.5-1.8 1.5-0.5 3 0.1 1.4 0.6 1.8 1.9z"/>
			<path id="&lt;Compound Path&gt;" class="s4" d="m217.9 475.3l-6.2 1.3 5.2 25.7-4.7-2.8-3.7-17.9q-0.4-2-2.3-2.8-1.9-0.9-4.4-0.2l-4.7-2.4q2.5-0.8 3.7-1 4.2-0.9 7.5 2.1-1.6-5.1-2.2-8l2.5 1q0.6 1.3 0.9 1.7 0.5 0.8 1.3 1.3l2.3-0.5z"/>
			<path id="&lt;Compound Path&gt;" class="s4" d="m249.3 470.8l-6.2 0.8 3.7 25.9-5.2-3.8-1.5-12.8q-0.4-2.5-3.1-4.8-3-2.5-6-2-3.7 0.5-5.3 2.9 1.3-0.4 2.4-0.6 2.8-0.4 4.7 0.5 2.1 1 2.4 3.2 0.5 3-5.3 9.5l-4.9-3.2q1.5-1.3 3.4-3.3 2.4-2.7 2.3-3.4-0.1-0.6-1.1-0.5-0.7 0.1-2.6 1.4-1.9 1.3-2.9 1.5-1.6 0.2-3-0.9-1.3-1.1-1.5-2.4-0.4-3.1 2.8-5.6 2.8-2.2 6.9-2.8 7.2-1 10.9 4.3-1.7-7.3-2.2-11.1l3.4 1.9-0.2 0.9q0.3 2 2.4 1.8 0.4-0.1 1-0.2z"/>
			<path id="&lt;Compound Path&gt;" class="s4" d="m264.3 469.7l-6.3 0.5 2.3 26.1-4.3-3.2-1.7-18.3q-0.2-2-2-3-1.8-1-4.4-0.7l-4.4-2.9q2.6-0.5 3.8-0.6 4.3-0.4 7.2 2.9-1-5.2-1.3-8.2l2.4 1.4q0.5 1.3 0.7 1.7 0.4 0.9 1.1 1.5l2.4-0.2z"/>
			<path id="&lt;Compound Path&gt;" class="s4" d="m295.1 497.5q-10.6-8.2-23.9-8.7l-4.1-5.6q3.9 0.8 5.7 0.8 4.7-0.2 8.3-1.9 4.5-2 4.4-5.4-0.1-2.1-3.5-1.9v0.6q0.3 2.3-3.1 4.6-3.4 2.4-6.4 2.5-2 0.1-3.6-0.8-1.7-1-1.8-2.5l-0.4-9.8-3.5 0.2-4.3-3.2 29.7-1.3 4.3 3.2-21.8 1q2 2.5 6.1 2.3 0.7 0 1.9-0.2 1.3-0.3 1.9-0.3 3.5-0.1 6.1 2 2.5 2.2 2.6 5 0.2 4.6-8.1 8.4 4.4 1.8 6.8 3.2 2.4 1.4 5.9 4.3zm-18.6-22.3q-3.3-0.6-5.5-2.3l0.2 5.8q0 0.7 0.5 0.7 1.5-0.1 3.1-1.5 1.5-1.5 1.7-2.7z"/>
			<path id="&lt;Compound Path&gt;" class="s4" d="m308.9 468.5h-6.3l-0.2 26.2-4-3.6 0.1-18.4q0-2-1.7-3.2-1.8-1.2-4.3-1.1l-4.2-3.3q2.7-0.2 3.9-0.2 4.3 0 6.9 3.6-0.5-5.3-0.5-8.3l2.3 1.6q0.3 1.3 0.4 1.7 0.4 0.9 1 1.6h2.5z"/>
			<path id="&lt;Compound Path&gt;" class="s4" d="m320.1 492.8q0 2.4-2.6 4.6-2.4 2.1-5.3 2.9l-0.9-1.9q1.7-0.6 3.2-1.7 1.9-1.4 1.9-2.7 0-0.3-0.3-0.5-0.3 0-0.8 0.1-0.6 0.1-0.9 0.1-1.6-0.1-2.7-0.9-1.1-0.8-1-2.1 0.1-3.4 4.3-3.3 5.3 0.2 5.1 5.4z"/>
			<path id="&lt;Compound Path&gt;" class="s4" d="m359.6 471.8q-6.1-0.1-10.3 3.4-3.9 3.3-4.4 8.3-0.3 2.5 0.6 4.8 1 2.7 3.5 3.6-0.7-0.9-0.6-1.7 0.3-3.3 5.2-2.8 1.4 0.1 2.3 1.3 0.9 1.2 0.8 2.4-0.2 1.8-2 3-1.9 1.2-4.2 1-5.3-0.5-7.8-5.2-2.2-3.8-1.7-8.4 0.5-5.1 4.4-9.2 4.5-4.7 10.4-4.1z"/>
			<path id="&lt;Compound Path&gt;" class="s4" d="m390 476.6l-5.4-0.8-3.9 24.7q-1.4-1.4-1.9-2.2-0.3-0.6-0.9-2.5-1.1-3.5-4.8-6.2-3.4-2.4-7.9-3.5l-5.2-7.2q2.7 1 4 1.2 2.8 0.4 6 0 4.2-0.6 4.5-2.5 0.1-0.9-0.6-1.9-5.2 2.9-10 2.1-2-0.3-3.3-1.6-1.3-1.3-1-2.9 0.2-1.2 1.4-2 1.2-0.7 2.7-0.5 2.9 0.5 3.1 2.6 1.5-0.1 3.4-1.1 1.5-0.9 3-1.8 3.4 3.4 3.9 3.9 1.9 2.3 1.6 4.5-0.4 2-2.3 3.5-1.9 1.4-4.4 1.9 4 2.6 6.1 5.9l3.7-23.2 2.7 1.9-0.1 0.9q-0.2 1.3 0.1 1.9 0.3 0.6 1.9 0.9z"/>
			<path id="&lt;Compound Path&gt;" class="s4" d="m406 480.4l-6.2-1.4-5.7 25.6-3.2-4.4 4-17.9q0.4-2-1-3.5-1.4-1.5-4-2l-3.3-4.1q2.6 0.4 3.8 0.6 4.2 1 6 5 0.6-5.3 1.2-8.2l1.9 2q0.1 1.3 0.1 1.8 0.2 1 0.7 1.8l2.3 0.5z"/>
			<path id="&lt;Compound Path&gt;" class="s4" d="m440.4 490.7l-13.9-4.3-0.3 0.7q4.4 1.4 6.7 5.7 2.1 4 1 7.6-0.6 1.9-2.5 2.8-2 1-4.2 0.3-1.7-0.5-2.7-1.9-1-1.4-0.6-2.7 0.5-1.6 2.8-2.2 1.1 0 2 0.3 1.3 0.4 2.2 1.3 0.2-2.2-1.5-4.3-1.8-2.1-4.5-2.7l-5.9 19-1.6-2.3q-1-9.9-10.6-13.9l-3.1-5.8q9.2-2.7 18.5-2.2l0.3-1-17.1-5.3-3-4.5 35.1 11zm-22.6 9.3l3-9.8q-4.2 0.1-9.7 1.2 4.7 3.8 6.7 8.6z"/>
			<path id="&lt;Compound Path&gt;" class="s4" d="m471 506.1l-5.7-2.9-11.6 22.8-1.9-5.3 5.1-10.1q0.3-0.6-0.6-1.9-0.8-1.4-1.6-1.8-1.5-0.7-3.8 0.3-2.2 1.1-4.4 2-2.8 0.9-5.2-0.4-1.3-0.6-1.6-1.3-1.3-1.3-1.9-7l3.9-0.8q-0.4 1.1-0.4 2.3 0 1.7 0.8 2.2 0.9 0.4 6.4-1.8 1.2-3.2-0.4-4.9-0.3-0.4-3.8-2.7-2.7-1.6-3.2-4-0.7-0.6-2.6-5.1l30.3 15.5zm-9.4-4.8l-10.1-5.1q1.7 3.3 0.4 5.5 2.9-0.1 3.6 0.3 1.8 0.9 3.1 5.2z"/>
			<path id="&lt;Compound Path&gt;" class="s4" d="m484.4 517.8l-4.9-4-16.6 20.2-0.9-5.3 11.6-14.2q1.3-1.6 0.7-3.6-0.6-2-2.7-3.6l-1.1-5.1q2.2 1.5 3.1 2.2 3.4 2.8 3.2 7.2 2.9-4.5 4.8-6.8l0.8 2.6q-0.6 1.2-0.8 1.7-0.3 0.9-0.2 1.9l1.9 1.5z"/>
		</g>
	</g>
</svg>